<?xml version="1.0" standalone="no"?>
<!DOCTYPE svg PUBLIC "-//W3C//DTD SVG 1.1//EN" "http://www.w3.org/Graphics/SVG/1.1/DTD/svg11.dtd" >
<svg xmlns="http://www.w3.org/2000/svg">
<metadata>
Created by FontForge 20120731 at Sun Sep 18 10:02:55 2016
 By admin
</metadata>
<defs>
<font id="iconfont" horiz-adv-x="1024" >
  <font-face 
    font-family="iconfont"
    font-weight="500"
    font-stretch="normal"
    units-per-em="1024"
    panose-1="2 0 6 3 0 0 0 0 0 0"
    ascent="896"
    descent="-128"
    x-height="792"
    bbox="-0.111111 -212 1024.11 896"
    underline-thickness="50"
    underline-position="-100"
    unicode-range="U+0078-E682"
  />
<missing-glyph horiz-adv-x="374" 
d="M34 0v682h272v-682h-272zM68 34h204v614h-204v-614z" />
    <glyph glyph-name=".notdef" horiz-adv-x="374" 
d="M34 0v682h272v-682h-272zM68 34h204v614h-204v-614z" />
    <glyph glyph-name=".null" horiz-adv-x="0" 
 />
    <glyph glyph-name="nonmarkingreturn" horiz-adv-x="341" 
 />
    <glyph glyph-name="x" unicode="x" horiz-adv-x="1001" 
d="M281 543q-27 -1 -53 -1h-83q-18 0 -36.5 -6t-32.5 -18.5t-23 -32t-9 -45.5v-76h912v41q0 16 -0.5 30t-0.5 18q0 13 -5 29t-17 29.5t-31.5 22.5t-49.5 9h-133v-97h-438v97zM955 310v-52q0 -23 0.5 -52t0.5 -58t-10.5 -47.5t-26 -30t-33 -16t-31.5 -4.5q-14 -1 -29.5 -0.5
t-29.5 0.5h-32l-45 128h-439l-44 -128h-29h-34q-20 0 -45 1q-25 0 -41 9.5t-25.5 23t-13.5 29.5t-4 30v167h911zM163 247q-12 0 -21 -8.5t-9 -21.5t9 -21.5t21 -8.5q13 0 22 8.5t9 21.5t-9 21.5t-22 8.5zM316 123q-8 -26 -14 -48q-5 -19 -10.5 -37t-7.5 -25t-3 -15t1 -14.5
t9.5 -10.5t21.5 -4h37h67h81h80h64h36q23 0 34 12t2 38q-5 13 -9.5 30.5t-9.5 34.5q-5 19 -11 39h-368zM336 498v228q0 11 2.5 23t10 21.5t20.5 15.5t34 6h188q31 0 51.5 -14.5t20.5 -52.5v-227h-327z" />
    <glyph glyph-name="uniE600" unicode="&#xe600;" 
d="M723 -8h-423v78h45v-32h332v32h46v-78zM300 777h423v-46h-423v46zM723 86h-423v624h423v-624zM345 131h332v533h-332v-533zM466 75h90v-23h-90v23z" />
    <glyph glyph-name="uniE601" unicode="&#xe601;" 
d="M475 718h68v-88h-68v88zM430 781h158v-63h-158v63zM701 560l80 81l47 -46l-81 -87zM455 317.5q0 -22.5 16 -38t38.5 -15.5t38 15.5t15.5 38t-15.5 38.5t-38 16t-38.5 -16t-16 -38.5zM498 488h21v-246h-21v246zM832 319.5q0 -88.5 -43.5 -163.5t-118.5 -118.5
t-163.5 -43.5t-163 43.5t-118.5 118.5t-44 163.5t44 163.5t118.5 118.5t163 43.5t163.5 -43.5t118.5 -118.5t43.5 -163.5zM507 592q-113 0 -192.5 -80t-79.5 -192.5t79.5 -192.5t192.5 -80t192.5 80t79.5 192.5t-79.5 192.5t-192.5 80z" />
    <glyph glyph-name="uniE602" unicode="&#xe602;" 
d="M204 405l184 -158l420 456l97 -88l-507 -548l-280 240z" />
    <glyph glyph-name="uniE603" unicode="&#xe603;" 
d="M821 178h-589l78 169l-103 334h-77v51h115l120 -389l-52 -113h508v-52zM774 297h-447v51h411l83 221h-474v52h548zM404 40q-22 0 -37.5 16t-15.5 38t15.5 37.5t37.5 15.5t38 -15.5t16 -37.5t-16 -38t-38 -16zM690 40q-22 0 -37.5 16t-15.5 38t15.5 37.5t37.5 15.5
t38 -15.5t16 -37.5t-16 -38t-38 -16z" />
    <glyph glyph-name="uniE604" unicode="&#xe604;" 
d="M274 16l45 266l-193 187l267 39l119 241l119 -241l266 -39l-193 -187l18 -100l-43 -8l-21 123l147 142l-203 30l-90 183l-91 -183l-202 -30l146 -142l-34 -202l181 95l219 -115l-20 -38l-199 105z" />
    <glyph glyph-name="uniE605" unicode="&#xe605;" 
d="M838 581l-129 129l57 57l129 -129zM293 36l-129 129l35 35l129 -129zM129 1l22 151l533 533l42 -43l-519 -519l-7 -51l51 7l519 519l43 -42l-533 -533z" />
    <glyph glyph-name="uniE606" unicode="&#xe606;" 
d="M512 753q-94 0 -160.5 -66.5t-66.5 -160.5q0 -26 8 -56l219 -455l217 451l2 4q8 30 8 56q0 94 -66.5 160.5t-160.5 66.5zM692 482l-180 -373l-180 373q-6 24 -6 44q0 77 54.5 131.5t131.5 54.5t131.5 -54.5t54.5 -131.5q0 -20 -6 -44zM512 650q-51 0 -87.5 -36.5
t-36.5 -87.5t36.5 -87t87.5 -36t87.5 36t36.5 87t-36.5 87.5t-87.5 36.5zM512 444q-34 0 -58.5 24t-24.5 58.5t24.5 58.5t58.5 24t58.5 -24t24.5 -58.5t-24.5 -58.5t-58.5 -24z" />
    <glyph glyph-name="uniE607" unicode="&#xe607;" 
d="M587 514q21 27 33 63q12 37 12 78q32 -12 42.5 -23t10.5 -30q0 -35 -16.5 -67.5t-34.5 -32.5q-6 0 -18 3q-10 3 -29 9zM255 146q-50 64 -72 120t-22 120q0 69 27 133q26 65 76 114q49 50 113 76q65 27 134 27q71 0 134 -26q63 -27 113 -77q50 -49 77 -113.5t27 -133.5
t-27 -133.5t-77 -113.5q-49 -50 -113.5 -77t-133.5 -27q-84 0 -135 27q-50 27 -50 71q0 10 3 19t11 19q8 -7 14 -11q6 -3 11 -3q8 0 24 13q16 14 32 34q12 18 22 40q9 22 9 28q0 4 -11 17t-11 26q0 18 10 47q11 30 30 69q22 45 36 63t29 24q3 1 11 2q25 2 38 22q11 19 20 49
q8 31 8 52q0 17 -5 23t-23 6q-26 0 -46 -4q-19 -4 -28 -11q-13 -9 -39 -42q-27 -34 -54 -77q-50 -79 -82 -167q-33 -89 -33 -134q0 -8 4 -18t14 -26q-13 -16 -19.5 -32.5t-6.5 -33.5q0 -55 59.5 -90.5t157.5 -35.5q75 0 146.5 29.5t125.5 83.5t83 125q30 71 30 147t-29 146
q-30 70 -84 125t-125 84q-70 29 -147 29t-147 -29.5t-124 -83.5t-83 -125q-30 -71 -30 -146q0 -67 21 -124q20 -57 59 -101q9 -9 16.5 -14t14.5 -5q2 0 7 1q2 0 10 3zM384 145q33 23 54 53q22 31 31 67q23 -15 30.5 -24t7.5 -19q0 -27 -26 -62q-27 -36 -51 -36q-7 0 -19 6
q-11 5 -27 15z" />
    <glyph glyph-name="uniE608" unicode="&#xe608;" 
d="M787 558l55 61q1 1 3.5 4.5t5.5 14.5t2 22.5t-10 28t-27 31.5l-62 41q-2 2 -6.5 3.5t-17.5 3t-24 0t-24 -9.5t-21 -24l-31 -48q33 -13 61.5 -31t45 -34.5t29 -31t16.5 -23.5zM238 558l-54 61q-2 1 -4 4.5t-5.5 14.5t-2.5 22.5t10 28t27 31.5l62 41q3 2 7.5 3.5t17 3t24 0
t24.5 -9.5t21 -24l31 -48q-33 -13 -61.5 -31t-45.5 -34.5t-29 -31t-17 -23.5zM687.5 185.5q9.5 5.5 20 2.5t15.5 -12l79 -136q5 -10 2 -20.5t-12 -15.5t-19.5 -2.5t-16.5 12.5l-78 136q-6 9 -3 19.5t12.5 16zM345 150l-79 -136q-5 -10 -15.5 -12.5t-20 2.5t-12 15.5
t2.5 20.5l79 136q5 9 15.5 12t20 -2.5t12 -16t-2.5 -19.5zM439 272.5q-8 7.5 -8 18.5t8 18l55 56q8 8 19 8t18.5 -8t7.5 -18.5t-8 -18.5l-55 -56q-8 -7 -18.5 -7t-18.5 7.5zM513 506q11 0 18.5 -7.5t7.5 -18.5v-131q0 -11 -7.5 -18.5t-18.5 -7.5t-18.5 7.5t-7.5 18.5v131
q0 11 7.5 18.5t18.5 7.5zM512.5 768q21.5 0 37 -15.5t15.5 -37t-15.5 -37t-37 -15.5t-37 15.5t-15.5 37t15.5 37t37 15.5zM512 64q-118 0 -202 83.5t-84 202t84 202.5t202 84t202 -84t84 -202.5t-84 -202t-202 -83.5zM512 583q-97 0 -165.5 -68.5t-68.5 -165t68.5 -165
t165.5 -68.5t165.5 68.5t68.5 165t-68.5 165t-165.5 68.5zM786 11zM696 166z" />
    <glyph glyph-name="uniE609" unicode="&#xe609;" 
d="M389 748h-224q-42 0 -72 -30t-30 -72v-224q0 -42 30 -72t72 -30h224q42 0 72 30t30 72v224q0 42 -30 72t-72 30zM858 748h-224q-43 0 -72.5 -30t-29.5 -72v-224q0 -42 29.5 -72t72.5 -30h224q42 0 72 30t30 72v224q0 42 -30 72t-72 30zM389 279h-224q-42 0 -72 -29.5
t-30 -72.5v-224q0 -42 30 -72t72 -30h224q42 0 72 30t30 72v224q0 43 -30 72.5t-72 29.5zM858 279h-224q-43 0 -72.5 -29.5t-29.5 -72.5v-224q0 -42 29.5 -72t72.5 -30h224q42 0 72 30t30 72v224q0 43 -30 72.5t-72 29.5z" />
    <glyph glyph-name="uniE60A" unicode="&#xe60a;" 
d="M895 188h-49v427h-496l-14 -92l-158 -142v-189h-49v210l161 146l17 116h588v-476zM333 104q-40 0 -68.5 28t-28.5 68t28.5 68.5t68.5 28.5t68 -28.5t28 -68.5t-28 -68t-68 -28zM332.5 248q-19.5 0 -33.5 -14t-14 -33.5t14 -33.5t33.5 -14t33.5 14t14 33.5t-14 33.5
t-33.5 14zM702 104q-40 0 -68 28t-28 68t28 68.5t68 28.5t68 -28.5t28 -68.5t-28 -68t-68 -28zM702 248q-20 0 -33.5 -14t-13.5 -33.5t13.5 -33.5t33.5 -14t33.5 14t13.5 33.5t-13.5 33.5t-33.5 14zM420 225h210v-49h-210v49zM385 338h-133v49h84v120h49v-169z" />
    <glyph glyph-name="uniE60B" unicode="&#xe60b;" 
d="M337 -13l-35 36l349 349l-349 349l35 36l385 -385z" />
    <glyph glyph-name="uniE60C" unicode="&#xe60c;" 
d="M512 768l-243 -323h203v-445h80v445h203z" />
    <glyph glyph-name="uniE60D" unicode="&#xe60d;" 
d="M877 370l-365 319l-365 -319l-20 23l385 336l385 -336zM812 39h-241v186h-120v-186h-241v311l300 268l302 -268v-311zM601 69h180v267l-270 242l-271 -242v-267h180v186h181v-186z" />
    <glyph glyph-name="uniE60E" unicode="&#xe60e;" 
d="M512 -1l-35 36l349 349l-349 349l35 36l385 -385zM163 -1l-36 36l350 349l-350 349l36 36l384 -385z" />
    <glyph glyph-name="uniE60F" unicode="&#xe60f;" 
d="M467 92q-140 0 -239 98q-65 65 -88 152t0 174t88 152q99 99 239 99t238 -99q65 -65 88 -152t0 -174t-88 -152q-98 -98 -238 -98zM467 719q-120 0 -205 -85t-85 -205t85 -205t205 -85t204.5 85t84.5 205t-84.5 205t-204.5 85zM861 1l-134 134l34 34l134 -134z" />
    <glyph glyph-name="uniE610" unicode="&#xe610;" 
d="M512 -1q-104 0 -193 51.5t-140.5 140.5t-51.5 193t51.5 193t140.5 140.5t193 51.5t193 -51.5t140.5 -140.5t51.5 -193t-51.5 -193t-140.5 -140.5t-193 -51.5zM512 716q-90 0 -166.5 -44.5t-121 -121t-44.5 -166.5t44.5 -166.5t121 -121t166.5 -44.5t166.5 44.5t121 121
t44.5 166.5t-44.5 166.5t-121 121t-166.5 44.5zM748 657l37 -37l-509 -509l-37 37z" />
    <glyph glyph-name="uniE611" unicode="&#xe611;" 
d="M791 -10h-152q-47 0 -80.5 33.5t-33.5 81.5v152q0 47 33.5 80.5t80.5 33.5h152q48 0 81.5 -33.5t33.5 -80.5v-152q0 -48 -33.5 -81.5t-81.5 -33.5zM639 346q-37 0 -63 -26t-26 -63v-152q0 -37 26 -63t63 -26h152q37 0 63 26t26 63v152q0 37 -26 63t-63 26h-152zM385 -10
h-152q-48 0 -81.5 33.5t-33.5 81.5v152q0 47 33.5 80.5t81.5 33.5h152q47 0 80.5 -33.5t33.5 -80.5v-152q0 -48 -33.5 -81.5t-80.5 -33.5zM233 346q-37 0 -63 -26t-26 -63v-152q0 -37 26 -63t63 -26h152q37 0 63 26t26 63v152q0 37 -26 63t-63 26h-152zM791 397h-152
q-47 0 -80.5 33.5t-33.5 80.5v152q0 48 33.5 81.5t80.5 33.5h152q48 0 81.5 -33.5t33.5 -81.5v-152q0 -47 -33.5 -80.5t-81.5 -33.5zM639 752q-37 0 -63 -26t-26 -63v-152q0 -37 26 -63t63 -26h152q37 0 63 26t26 63v152q0 37 -26 63t-63 26h-152zM385 397h-152
q-48 0 -81.5 33.5t-33.5 80.5v152q0 48 33.5 81.5t81.5 33.5h152q47 0 80.5 -33.5t33.5 -81.5v-152q0 -47 -33.5 -80.5t-80.5 -33.5zM233 752q-37 0 -63 -26t-26 -63v-152q0 -37 26 -63t63 -26h152q37 0 63 26t26 63v152q0 37 -26 63t-63 26h-152z" />
    <glyph glyph-name="uniE612" unicode="&#xe612;" 
d="M394 -2h-150q-46 0 -79 33t-33 79v150q0 46 33 79t79 33h150q46 0 79 -33t33 -79v-150q0 -46 -33 -79t-79 -33zM244 347q-36 0 -61.5 -25.5t-25.5 -61.5v-150q0 -36 25.5 -61.5t61.5 -25.5h150q36 0 61.5 25.5t25.5 61.5v150q0 36 -25.5 61.5t-61.5 25.5h-150zM394 396
h-150q-46 0 -79 33t-33 79v150q0 46 33 79t79 33h150q46 0 79 -33t33 -79v-150q0 -46 -33 -79t-79 -33zM244 745q-36 0 -61.5 -25.5t-25.5 -61.5v-150q0 -36 25.5 -61.5t61.5 -25.5h150q36 0 61.5 25.5t25.5 61.5v150q0 36 -25.5 61.5t-61.5 25.5h-150zM565 732h305
q22 0 22 -24q0 -11 -8 -18t-14 -7h-305q-17 0 -22 25q0 4 1 8.5t6.5 10t14.5 5.5zM565 608h305q22 0 22 -25q0 -11 -8 -18t-14 -7h-305q-17 0 -22 25q0 4 1 8.5t6.5 10.5t14.5 6zM565 484h305q22 0 22 -25q0 -11 -8 -18t-14 -7h-305q-17 0 -22 25q0 4 1 8.5t6.5 10.5t14.5 6
zM565 334h305q22 0 22 -25q0 -11 -8 -18t-14 -7h-305q-17 0 -22 25q0 4 1 9t6.5 10.5t14.5 5.5zM565 210h305q22 0 22 -25q0 -11 -8 -18t-14 -7h-305q-17 0 -22 25q0 4 1 8.5t6.5 10.5t14.5 6zM565 85h305q22 0 22 -25q0 -10 -8 -17t-14 -7h-305q-17 -1 -22 24q0 4 1 9
t6.5 10.5t14.5 5.5z" />
    <glyph glyph-name="uniE613" unicode="&#xe613;" 
d="M574 8l-179 119v208l-267 425h768l-322 -375v-377zM420 141l128 -86v339l292 341h-665l245 -393v-201z" />
    <glyph glyph-name="uniE614" unicode="&#xe614;" 
d="M512 768q33 0 56 -22.5t23 -54.5v-358q0 -32 -23 -54.5t-56 -22.5t-56 22.5t-23 54.5v358q0 32 23 54.5t56 22.5zM512 154q33 0 56 -22.5t23 -54.5t-23 -54.5t-56 -22.5t-56 22.5t-23 54.5t23 54.5t56 22.5z" />
    <glyph glyph-name="uniE615" unicode="&#xe615;" 
d="M148 747l727 -726zM854 0l-726 727l41 41l726 -726zM875 747l-727 -726zM169 0l-41 42l726 726l41 -41z" />
    <glyph glyph-name="uniE616" unicode="&#xe616;" 
d="M672 242q-63 56 -124.5 91t-109.5 47t-94 10t-76 -11t-57.5 -24.5t-37 -23.5t-14.5 -14l-30 30q5 5 15 13t40.5 26t64.5 29.5t86 15t105.5 -8.5t122 -49.5t137.5 -99.5zM363 231q-40 0 -79.5 9t-65 20.5t-48 26.5t-30.5 21.5t-11 9.5l30 30l-15 -15l15 15q6 -6 15.5 -14
t38 -24.5t60 -26t79.5 -11.5t98 10.5t114 49t129 95.5l28 -31q-181 -165 -358 -165zM242.5 317q-10.5 0 -18 7.5t-7.5 18.5t7.5 18.5t18 7.5t18 -7.5t7.5 -18.5t-7.5 -18.5t-18 -7.5zM242.5 345q-2.5 0 -2.5 -2h5q0 2 -2.5 2zM227 390l-29 184h167v-42h-118l21 -136zM817 81
h-541l-27 180l41 6l22 -144h469l65 409h-118v42h167zM720 439l-41 5q0 5 0.5 13t0.5 28.5t-3 40t-12 42.5t-24 40q-33 37 -94.5 37t-95.5 -37q-14 -17 -23 -40t-12 -42t-3.5 -40.5t0.5 -29t1 -12.5l-41 -5q-1 6 -2 15.5t0 34.5t5 48t15 50.5t29 47.5q45 52 126 52t127 -52
q18 -20 29 -47.5t15 -50.5t5 -48t0 -34.5t-2 -15.5zM451 575h191v-42h-191v42z" />
    <glyph glyph-name="uniE617" unicode="&#xe617;" 
d="M896 446q0 -41 -28 -70t-68 -29t-68 29t-28 70v0q0 -41 -28 -70t-68 -29t-68 29t-28 70v0v0q0 -41 -28 -70t-68 -29t-68 29t-28 70v0v0q0 -41 -28 -70t-68 -29t-68 29t-28 70v0l59 177h650l59 -177v0zM772 683h-520q-15 0 -25 8.5t-10 21t10 21t25 8.5h520q15 0 25 -8.5
t10 -21t-10 -21t-25 -8.5zM276 324v-30v-149h472v149v30q5 -11 14 -20t16 -10q3 0 6 0.5t6 2.5t4.5 3.5t3.5 5t3 5.5l3 7q3 5 3 6v-239q0 -25 -16.5 -42t-42.5 -17h-472q-22 0 -40.5 17t-18.5 42v239q2 -10 4.5 -15t8.5 -10t16 -5q12 0 20 10t10 20z" />
    <glyph glyph-name="uniE618" unicode="&#xe618;" 
d="M838 154h-713v90h25q7 0 11.5 4.5t4.5 11t-4.5 11.5t-11.5 5h-25v75h25q7 0 11.5 4.5t4.5 11.5t-4.5 11.5t-11.5 4.5h-25v75h25q7 0 11.5 5t4.5 11.5t-4.5 11t-11.5 4.5h-25v76h25q7 0 11.5 4.5t4.5 11t-4.5 11t-11.5 4.5h-25v91h713v-91h-25q-6 0 -10.5 -4.5t-4.5 -11
t4.5 -11t10.5 -4.5h25v-76h-25q-6 0 -10.5 -4.5t-4.5 -11t4.5 -11.5t10.5 -5h25v-75h-25q-6 0 -10.5 -4.5t-4.5 -11.5t4.5 -11.5t10.5 -4.5h25v-75h-25q-6 0 -10.5 -5t-4.5 -11.5t4.5 -11t10.5 -4.5h25v-90zM184 203h596q-32 20 -32 57q0 34 27 53q-27 20 -27 54t27 54
q-27 19 -27 53t27 54q-27 20 -27 53q0 38 32 57h-596q32 -19 32 -57q0 -33 -28 -53q28 -20 28 -54t-28 -53q28 -20 28 -54t-28 -54q28 -19 28 -53q0 -37 -32 -57zM899 90h-660v50h610v439h50v-489zM368 549h235v-50h-235v50zM368 446h235v-50h-235v50zM368 342h235v-50h-235
v50z" />
    <glyph glyph-name="uniE619" unicode="&#xe619;" 
d="M563 372v50h-30v49h-50v-49h-60v49h-50v-49h-29v-50h85v-43h-85v-50h85v-83h50v83h84v50h-84v43h84zM794 127h-667v432h667v-432zM177 177h567v332h-567v-332zM888 259h-91v50h41v293h-608v50h658v-393z" />
    <glyph glyph-name="uniE61A" unicode="&#xe61a;" 
d="M124 384q0 -36 25.5 -61t61 -25t60.5 25t25 61t-25 61t-60.5 25t-61 -25t-25.5 -61zM426 384q0 -36 25 -61t61 -25t61 25t25 61t-25 61t-61 25t-61 -25t-25 -61zM728 384q0 -36 25 -61t60.5 -25t61 25t25.5 61t-25.5 61t-61 25t-60.5 -25t-25 -61z" />
    <glyph glyph-name="uniE61B" unicode="&#xe61b;" 
d="M849 521h-674v183h162v76h350v-76h162v-183zM231 578h562v69h-162v76h-238v-76h-162v-69zM808 -11h-592v560h56v-504h480v504h56v-560zM376 448h57v-341h-57v341zM591 448h57v-341h-57v341z" />
    <glyph glyph-name="uniE61C" unicode="&#xe61c;" 
d="M893 494l14 7v151h-790v-151l14 -7q33 -14 53 -44t20 -66t-20 -66t-53 -44l-14 -7v-151h790v151l-14 7q-33 14 -53 44t-20 66t20 66t53 44zM858 532q-40 -22 -63.5 -62t-23.5 -86t23.5 -86t63.5 -62v-71h-491v12h-49v-12h-152v71q40 22 63.5 62t23.5 86t-23.5 86
t-63.5 62v71h152v-12h49v12h491v-71zM253 384q0 -46 -23.5 -86t-63.5 -62q40 22 63.5 62t23.5 86zM771 384q0 46 23.5 86t63.5 63q-40 -23 -63.5 -63t-23.5 -86zM318 515h49h-49zM166 532q40 -22 63.5 -62t23.5 -86q0 46 -23.5 86t-63.5 62zM858 236q-40 22 -63.5 62
t-23.5 86q0 -46 23.5 -86t63.5 -62zM318 484h49v-46h-49v46zM318 561h49v-46h-49v46zM318 561h49h-49zM318 407h49v-46h-49v46zM318 330h49v-46h-49v46zM318 253h49v-46h-49v46zM480 525h216v-49h-216v49zM480 417h216v-49h-216v49zM480 309h216v-50h-216v50z" />
    <glyph glyph-name="uniE61D" unicode="&#xe61d;" 
d="M33 895zM65 895zM97 895zM129 895zM161 895zM193 895zM225 895zM256 895zM288 895zM320 895zM352 895zM384 895zM416 895zM448 895zM480 895zM512 895zM544 895zM576 895zM608 895zM640 895zM672 895zM704 895zM736 895zM768 895zM799 895zM831 895zM863 895zM895 895z
M927 895zM959 895zM991 895zM1 863zM1 831zM1 799zM1 767zM1 735zM1 703zM1 671zM1 640zM1 608zM1 576zM1 544zM1 512zM1 480zM1 448zM1 416zM1 384zM1 352zM1 320zM1 288zM1 256zM1 224zM1 192zM1 160zM1 128zM1 97zM1 65zM1 33zM1 1zM1 -31zM1 -63zM1 -95zM761 489v103
h-83l-108 187l-364 -211l43 -74l-66 23v-528h658v528zM704 469l-41 -14v45h-220v-57h185l-116 -41l-115 40v93h307v-66zM612 592h-251l188 109zM284 547l56 33v-118l-8 3zM784 46h-243v70h113v57h-113v32h113v57h-68v73h-57v-73h-40v73h-57v-73h-68v-57h120v-32h-120v-57
h120v-70h-244v391l272 -95l272 95v-391z" />
    <glyph glyph-name="uniE61E" unicode="&#xe61e;" 
d="M128 416h768v-64h-768v64z" />
    <glyph glyph-name="uniE61F" unicode="&#xe61f;" 
d="M142 417h743v-62h-743v62zM482 758h62v-743h-62v743z" />
    <glyph glyph-name="uniE620" unicode="&#xe620;" 
d="M687 757l35 -36l-349 -349l349 -349l-35 -36l-385 385z" />
    <glyph glyph-name="uniE621" unicode="&#xe621;" 
d="M127 547l36 35l349 -349l349 349l36 -35l-385 -385z" />
    <glyph glyph-name="uniE622" unicode="&#xe622;" 
d="M512 -12l243 323h-203v445h-80v-445h-203z" />
    <glyph glyph-name="uniE623" unicode="&#xe623;" 
d="M897 197l-36 -35l-349 349l-349 -349l-36 35l385 385z" />
    <glyph glyph-name="uniE624" unicode="&#xe624;" 
d="M512 755q-51 0 -123.5 -15.5t-132 -30.5t-78.5 -15v-410q3 -20 9.5 -41.5t29 -55.5t56 -63.5t96 -60t143.5 -50.5q81 20 143.5 50.5t96.5 60t56 63.5t28.5 55.5t9.5 41.5v410q-18 0 -77.5 15t-132.5 30.5t-124 15.5v0zM805 296q-2 -18 -8 -36.5t-25.5 -48.5t-49 -55.5
t-84.5 -52.5t-126 -45q-71 18 -126 45t-84.5 52.5t-49 55.5t-25.5 48.5t-8 36.5v361q14 0 124 26.5t169 26.5t169.5 -26.5t123.5 -26.5v-361zM326 540v37h362v-37h-143v-98h135v-35h-135v-146h153v-33h-386v33h46v192h51v-192h77v279h-160zM326 540z" />
    <glyph glyph-name="uniE625" unicode="&#xe625;" 
d="M351 737h146v-291h-146v291zM497 451h-160l14 293h146v-293zM308 451h-161l59 293h116zM527 451h160l-14 293h-146v-293zM717 451h160l-59 293h-116zM308 409q0 -34 -23.5 -57.5t-57 -23.5t-57 23.5t-23.5 57.5h161zM147 423h161v-15h-161v15zM497 409q0 -34 -23.5 -57.5
t-56.5 -23.5t-56.5 23.5t-23.5 57.5h160zM337 423h160v-15h-160v15zM687 409q0 -34 -23.5 -57.5t-56.5 -23.5t-56.5 23.5t-23.5 57.5h160zM527 423h160v-15h-160v15zM877 409q0 -34 -23.5 -57.5t-57 -23.5t-57 23.5t-23.5 57.5h161zM716 423h161v-15h-161v15zM210 72h607
v-44h-607v44zM206 277h43v-249h-43v249zM775 277h43v-249h-43v249z" />
    <glyph glyph-name="uniE626" unicode="&#xe626;" 
d="M818 157h-564l72 157l-102 333h-81v37h108l115 -372l-54 -118h506v-37zM767 273h-431v37h405l86 228h-53v38h107zM411 22q-19 0 -32.5 13.5t-13.5 32.5t13.5 32.5t32.5 13.5t32.5 -13.5t13.5 -32.5t-13.5 -32.5t-32.5 -13.5zM411 76q-9 0 -9 -8.5t8.5 -8.5t9 8.5
t-8.5 8.5zM690 22q-19 0 -32.5 13.5t-13.5 32.5t13.5 32.5t32.5 13.5t32.5 -13.5t13.5 -32.5t-13.5 -32.5t-32.5 -13.5zM690.5 76q-8.5 0 -8.5 -8.5t8.5 -8.5t8.5 8.5t-8.5 8.5zM501 366l43 38q8 8 10 27q1 23 -23 38q-20 12 -14 55q1 8 2 10q-5 5 -24 7q-18 2 -25 6l-4 1
q-49 23 -60 69q-2 7 -4 12t-3 7l-1 1q2 -2 8 0l-16 34q12 5 24 -1q20 -9 28 -45q4 -15 13 -25v3q-4 18 3 30t20 16q8 4 20.5 1.5t17.5 -10.5q12 22 39 42q4 4 4 8q0 8 -11 16l23 29q24 -18 25 -44q1 -21 -17 -37l-1 -1q-27 -20 -31 -35q-6 -20 -24 -22q-16 -1 -32 16v-3
q1 -5 2 -8h3q14 -2 23 -7q5 -3 14 -9q12 -7 19 -8q70 -2 107 -29q27 -20 31 -44q4 -27 -21 -62q-49 -65 -111 -71zM553 500q41 -28 38 -72q-1 -6 -1 -10q24 12 49 46q16 23 14 34q-1 9 -16 20q-26 19 -81 22q0 -6 -2 -21t-1 -19zM543 336q-84 0 -143 59.5t-59 143t59 143
t143 59.5t143 -59.5t59 -143t-59 -143t-143 -59.5zM543 703q-68 0 -116.5 -48t-48.5 -116.5t48.5 -117t116.5 -48.5t116.5 48.5t48.5 117t-48.5 116.5t-116.5 48z" />
    <glyph glyph-name="uniE627" unicode="&#xe627;" 
d="M146 634q-10 31 4.5 60.5t45.5 39.5t60.5 -4.5t39.5 -45.5l155 -470q-23 6 -45 2l-150 454q-5 15 -18.5 21.5t-28 2t-21.5 -18t-2 -28.5q3 -8 -1 -16t-12.5 -10.5t-16 1.5t-10.5 12zM854 298l-351 -116q14 -16 20 -36l1 -1l343 113q9 3 13 10.5t1 16t-11 12.5t-16 1z
M503 139.5q-11 32.5 -41.5 48t-63 5t-48 -41.5t-5 -63.5t41.5 -48t63.5 -5t48 41.5t4.5 63.5zM437.5 73.5q-16.5 -5.5 -32 2.5t-21 24.5t2.5 31.5t24.5 20.5t31.5 -2t20.5 -24t-2 -32t-24 -21zM853 344l-103 313q-4 12 -16 8l-325 -107q-12 -4 -8 -16l103 -313q4 -12 16 -9
l325 108q12 4 8 16zM769 423l-27 13q9 -41 -11 -78t-60 -51.5t-79 1t-58 52.5l-13 -27l-17 7l26 56l55 -26l-8 -17l-24 11q16 -26 44.5 -38t58.5 -4l-54 148l-32 -12l-6 18l31 11l-5 14q-11 -1 -21 5.5t-14 17.5q-5 13 1 26t19.5 18t27 -1t17.5 -20q9 -24 -12 -40l5 -13
l31 11l7 -17l-32 -12l54 -148q28 13 42 40.5t9 58.5l-11 -25l-17 8l26 56l55 -26zM572 535.5q0 -6.5 4.5 -11t11 -4.5t11.5 4.5t5 11t-5 11t-11.5 4.5t-11 -4.5t-4.5 -11z" />
    <glyph glyph-name="uniE628" unicode="&#xe628;" 
d="M499 -64q-91 0 -174 35.5t-143 95.5t-95.5 143t-35.5 174t35.5 174t95.5 143t143 95.5t174 35.5t174 -35.5t143 -95.5t95.5 -143t35.5 -174q0 -110 -51 -207l-45 24q45 85 45 183q0 108 -53.5 199t-145 144.5t-199 53.5t-199 -53.5t-144.5 -144.5t-53 -199t53 -199
t144.5 -144.5t199.5 -53.5q136 0 243 84l32 -41q-121 -94 -275 -94zM499 526q-36 0 -61.5 25.5t-25.5 61t25.5 61t61 25.5t61 -25.5t25.5 -61t-25 -61t-61 -25.5zM498.5 648q-14.5 0 -24.5 -10.5t-10 -25t10 -25t24.5 -10.5t25 10.5t10.5 25t-10.5 25t-25 10.5zM473 573h51
v-435h-51v435zM374 522h249v-51h-249v51zM498.5 111q-96.5 0 -165 68.5t-68.5 164.5h52q0 -75 53 -128.5t128.5 -53.5t129 53.5t53.5 128.5h51q0 -96 -68.5 -164.5t-165 -68.5zM231 253l-37 37l106 105l105 -101l-36 -37l-68 66zM625 253l-36 37l106 105l105 -101l-36 -37
l-68 66zM499 -64q-91 0 -174 35.5t-143 95.5t-95.5 143t-35.5 174t35.5 174t95.5 143t143 95.5t174 35.5t174 -35.5t143 -95.5t95.5 -143t35.5 -174q0 -110 -51 -207l-45 24q45 85 45 183q0 108 -53.5 199t-145 144.5t-199 53.5t-199 -53.5t-144.5 -144.5t-53 -199t53 -199
t144.5 -144.5t199.5 -53.5q136 0 243 84l32 -41q-121 -94 -275 -94zM499 526q-36 0 -61.5 25.5t-25.5 61t25.5 61t61 25.5t61 -25.5t25.5 -61t-25 -61t-61 -25.5zM498.5 648q-14.5 0 -24.5 -10.5t-10 -25t10 -25t24.5 -10.5t25 10.5t10.5 25t-10.5 25t-25 10.5zM473 573h51
v-435h-51v435zM374 522h249v-51h-249v51zM498.5 111q-96.5 0 -165 68.5t-68.5 164.5h52q0 -75 53 -128.5t128.5 -53.5t129 53.5t53.5 128.5h51q0 -96 -68.5 -164.5t-165 -68.5zM231 253l-37 37l106 105l105 -101l-36 -37l-68 66zM625 253l-36 37l106 105l105 -101l-36 -37
l-68 66zM499 -64q-91 0 -174 35.5t-143 95.5t-95.5 143t-35.5 174t35.5 174t95.5 143t143 95.5t174 35.5t174 -35.5t143 -95.5t95.5 -143t35.5 -174q0 -110 -51 -207l-45 24q45 85 45 183q0 108 -53.5 199t-145 144.5t-199 53.5t-199 -53.5t-144.5 -144.5t-53 -199t53 -199
t144.5 -144.5t199.5 -53.5q136 0 243 84l32 -41q-121 -94 -275 -94zM499 526q-36 0 -61.5 25.5t-25.5 61t25.5 61t61 25.5t61 -25.5t25.5 -61t-25 -61t-61 -25.5zM498.5 648q-14.5 0 -24.5 -10.5t-10 -25t10 -25t24.5 -10.5t25 10.5t10.5 25t-10.5 25t-25 10.5zM473 573h51
v-435h-51v435zM374 522h249v-51h-249v51zM498.5 111q-96.5 0 -165 68.5t-68.5 164.5h52q0 -75 53 -128.5t128.5 -53.5t129 53.5t53.5 128.5h51q0 -96 -68.5 -164.5t-165 -68.5zM231 253l-37 37l106 105l105 -101l-36 -37l-68 66zM625 253l-36 37l106 105l105 -101l-36 -37
l-68 66zM499 -64q-91 0 -174 35.5t-143 95.5t-95.5 143t-35.5 174t35.5 174t95.5 143t143 95.5t174 35.5t174 -35.5t143 -95.5t95.5 -143t35.5 -174q0 -110 -51 -207l-45 24q45 85 45 183q0 108 -53.5 199t-145 144.5t-199 53.5t-199 -53.5t-144.5 -144.5t-53 -199t53 -199
t144.5 -144.5t199.5 -53.5q136 0 243 84l32 -41q-121 -94 -275 -94zM499 526q-36 0 -61.5 25.5t-25.5 61t25.5 61t61 25.5t61 -25.5t25.5 -61t-25 -61t-61 -25.5zM498.5 648q-14.5 0 -24.5 -10.5t-10 -25t10 -25t24.5 -10.5t25 10.5t10.5 25t-10.5 25t-25 10.5zM473 573h51
v-435h-51v435zM374 522h249v-51h-249v51zM498.5 111q-96.5 0 -165 68.5t-68.5 164.5h52q0 -75 53 -128.5t128.5 -53.5t129 53.5t53.5 128.5h51q0 -96 -68.5 -164.5t-165 -68.5zM231 253l-37 37l106 105l105 -101l-36 -37l-68 66zM625 253l-36 37l106 105l105 -101l-36 -37
l-68 66z" />
    <glyph glyph-name="uniE629" unicode="&#xe629;" 
d="M730 19l51 42l-48 485q98 103 132 149t21 63q-17 13 -63 -21t-149 -132l-485 48l-42 -51l369 -151l-184 -185l-116 30l-81 -56l144 -60q-6 -5 -21 -26t-16 -36q0 -2 2 -2q0 -2 2 -2q15 1 36 16t26 21l60 -144l56 81l-30 116l185 184z" />
    <glyph glyph-name="uniE62A" unicode="&#xe62a;" 
d="M166 757h110v-746h-110v746zM363 323v369l495 -185z" />
    <glyph glyph-name="uniE62B" unicode="&#xe62b;" 
d="M752 466h270v270h-58v-143q-61 134 -184.5 214.5t-273.5 80.5q-102 0 -195.5 -40t-161 -107.5t-107.5 -161t-40 -195.5t40 -195.5t107.5 -161t161 -107.5t195.5 -40q148 0 272.5 80.5t186.5 215.5l-53 24q-54 -120 -164.5 -191t-241.5 -71q-91 0 -173.5 35.5t-142 95
t-95 142t-35.5 173.5t35.5 173.5t95 142t142 95t173.5 35.5q146 0 262.5 -84.5t161.5 -221.5h-178v-58zM732 436v58h-100v112h-58v-112h-166v112h-58v-112h-100v-58h221v-148h-221v-58h221v-194h58v194h203v58h-203v148h203z" />
    <glyph glyph-name="uniE62C" unicode="&#xe62c;" 
d="M120 478l889 136l-29 193l-978 -150l30 -193h1v-503h989v517h-902zM930 739l11 -75l-859 -132l-12 75zM962 21h-869v397h869v-397z" />
    <glyph glyph-name="uniE62D" unicode="&#xe62d;" 
d="M1022 516h-62v193h-958v-650h958v183h62v274zM906 113h-850v542h850v-139h-358v-274h358v-129zM968 296h-367v61h97v54h-97v51h367v-166z" />
    <glyph glyph-name="uniE62E" unicode="&#xe62e;" 
d="M242 755l-23 -154l-217 -195v-281h53v258l214 192l18 128h682v-583h53v635h-780zM768 259q-44 0 -77.5 -27.5t-42.5 -69.5h-257q-10 42 -43.5 69.5t-77.5 27.5q-51 0 -87 -36t-36 -87t36 -87t87 -36q44 0 77.5 27.5t43.5 69.5h257q9 -42 42.5 -69.5t77.5 -27.5
q51 0 87.5 36t36.5 87t-36.5 87t-87.5 36zM270 65q-29 0 -49.5 21t-20.5 50t20.5 50t49.5 21t50 -21t21 -50t-21 -50t-50 -21zM768 65q-29 0 -49.5 21t-20.5 50t20.5 50t49.5 21t50 -21t21 -50t-21 -50t-50 -21zM334 551h-52v-169h-121v-53h173v222z" />
    <glyph glyph-name="uniE62F" unicode="&#xe62f;" 
d="M2 770v-772h1020v772h-1020zM966 54h-908v660h908v-660zM110 600h804v-56h-804v56zM121 152h128v128h-128v-128zM177 224h16v-16h-16v16zM849 416h-55v-56h-77v56h-56v-56h-49v-55h120v-67h-120v-55h120v-105h56v105h110v55h-110v67h110v55h-49v56z" />
    <glyph glyph-name="uniE630" unicode="&#xe630;" 
d="M384 59l128 67l128 -67l-25 142l104 101l-143 20l-64 130l-64 -130l-143 -20l104 -101zM384 276l88 13l40 80l40 -80l88 -13l-64 -62l15 -88l-79 41l-79 -41l15 88zM425 613q-8 0 -13.5 -5.5t-5.5 -13t5.5 -13t13.5 -5.5h178q7 0 12.5 5.5t5.5 13t-5.5 13t-12.5 5.5h-178
zM347.5 466q15.5 0 26 11t10.5 26q0 21 -18 31v115q0 61 43 103.5t103 42.5t103 -42.5t43 -103.5v-115q-18 -10 -18 -31q0 -15 10.5 -26t26 -11t26 11t10.5 26q0 21 -18 31v115q0 76 -53.5 129.5t-129.5 53.5t-129.5 -53.5t-53.5 -129.5v-115q-18 -10 -18 -31
q0 -15 10.5 -26t26 -11zM841 596q-1 7 -6 12t-12 5h-74q-8 0 -13 -5.5t-5 -13t5 -13t13 -5.5h57l69 -603h-726l69 603h47q7 0 12.5 5.5t5.5 13t-5.5 13t-12.5 5.5h-64q-7 0 -12 -5t-6 -12l-73 -640q-1 -8 4.5 -14t13.5 -6h768q8 0 13.5 6t4.5 14z" />
    <glyph glyph-name="uniE631" unicode="&#xe631;" 
d="M534 827q-30 14 -55 -7l-252 -212h-152q-22 0 -37 -15t-15 -37v-344q0 -22 15 -37t37 -15h76v64h-64v320h163l250 210v-740l-241 203l-41 -49l261 -220q14 -12 33 -12q12 0 22 5q30 14 30 47v792q0 33 -30 47zM690 641l-41 -49q46 -40 72 -95t26 -116q0 -59 -24 -113
t-68 -93l42 -48q54 49 84 115t30 139q0 75 -31.5 143t-89.5 117zM798 738l-32 -55q79 -46 125 -127t46 -173q0 -91 -45.5 -171.5t-124.5 -127.5l33 -54q93 55 147 150t54 203q0 109 -54.5 204.5t-148.5 150.5z" />
    <glyph glyph-name="uniE632" unicode="&#xe632;" 
d="M899 21h-774q-39 0 -66 27t-27 65v542q0 38 27 65t66 27h774q39 0 66 -27t27 -65v-542q0 -38 -27 -65t-66 -27zM125 697q-18 0 -30.5 -12.5t-12.5 -29.5v-542q0 -17 12.5 -29.5t30.5 -12.5h774q18 0 30 12.5t12 29.5v542q0 17 -12 29.5t-30 12.5h-774zM866 560h-710
q-10 0 -17.5 7.5t-7.5 18t7.5 18t17.5 7.5h710q11 0 18.5 -7.5t7.5 -18t-7.5 -18t-18.5 -7.5zM866 470h-710q-10 0 -17.5 7.5t-7.5 18t7.5 18t17.5 7.5h710q11 0 18.5 -7.5t7.5 -18t-7.5 -18t-18.5 -7.5zM263 166h-119v119h119v-119zM195 217h17v17h-17v-17zM866 310h-246
q-10 0 -17.5 7.5t-7.5 18t7.5 18t17.5 7.5l247 -1q10 0 17.5 -7.5t7.5 -18t-7.5 -17.5t-18.5 -7zM866 194l-246 1q-10 0 -17.5 7.5t-7.5 18t7.5 18t17.5 7.5l247 -1q10 0 17.5 -7.5t7.5 -18t-7.5 -18t-18.5 -7.5zM613 214zM891 214zM678.5 310q-10.5 0 -18 7t-7.5 18v59
q0 11 7.5 18.5t18 7.5t18 -7.5t7.5 -18.5v-59q0 -11 -7.5 -18t-18 -7zM804 310q-10 0 -17.5 7t-7.5 18v59q0 11 7.5 18.5t17.5 7.5q11 0 18 -7.5t7 -18.5v-59q0 -11 -7 -18t-18 -7zM746.5 92q-10.5 0 -18 7.5t-7.5 18.5v217q0 11 7.5 18.5t18 7.5t18 -7.5t7.5 -18.5v-217
q0 -11 -7.5 -18.5t-18 -7.5z" />
    <glyph glyph-name="uniE633" unicode="&#xe633;" 
d="M512 23q-96 0 -178 47.5t-129.5 129.5t-47.5 178.5t47.5 178t129.5 129.5t178 48t178 -48t129.5 -129.5t47.5 -178t-47.5 -178.5t-129.5 -129.5t-178 -47.5zM512 680q-125 0 -213.5 -88.5t-88.5 -213t88.5 -213t213.5 -88.5t213.5 88.5t88.5 213t-88.5 213t-213.5 88.5z
M512 -96q-130 0 -240.5 64.5t-175 175t-64.5 240.5t64.5 240.5t175 175t240.5 64.5q92 0 176 -33q11 -4 15 -14.5t0 -20.5t-14 -14.5t-20 -0.5q-75 29 -157 29q-116 0 -214 -57t-155 -155t-57 -214t57 -214t155 -155t214 -57t214 57t155 155t57 214q0 67 -19 129q-4 11 1 21
t15.5 13t20.5 -2t14 -16q22 -70 22 -145q0 -198 -141 -339t-339 -141zM438 447q-11 0 -19 8t-8 19v73q0 11 8 19t19 8t19 -8t8 -19v-73q0 -11 -8 -19t-19 -8zM585 447q-11 0 -19 8t-8 19v73q0 11 8 19t19 8t19 -8t8 -19v-73q0 -11 -8 -19t-19 -8zM512 154q-11 0 -19 8t-8 19
v263q0 11 8 19t19 8t19 -8t8 -19v-263q0 -11 -8 -19t-19 -8zM657 422h-290q-11 0 -19 7.5t-8 19t8 19t19 7.5h290q12 0 19.5 -7.5t7.5 -19t-7.5 -19t-19.5 -7.5zM657 298h-290q-11 0 -19 8t-8 19t8 19t19 8h290q12 0 19.5 -8t7.5 -19t-7.5 -19t-19.5 -8z" />
    <glyph glyph-name="uniE634" unicode="&#xe634;" 
d="M935 60h-846q-24 0 -40.5 16.5t-16.5 40.5v71q0 19 9.5 39.5t24.5 32.5q23 20 48 55.5t25 68.5t-25 68.5t-49 55.5q-14 12 -23.5 32.5t-9.5 39.5v71q0 24 16.5 40.5t40.5 16.5h846q24 0 40.5 -16.5t16.5 -40.5v-71q0 -19 -9.5 -39.5t-24.5 -32.5q-23 -20 -48 -55.5
t-25 -68.5t25 -68.5t49 -55.5q14 -12 23.5 -32.5t9.5 -39.5v-71q0 -24 -16.5 -40.5t-40.5 -16.5zM89 659q-8 0 -8 -8v-71q0 -8 5 -19t11 -16q5 -4 11.5 -10t22 -23.5t27 -35.5t21 -43.5t9.5 -48.5t-9.5 -48.5t-21 -43.5t-27 -35.5t-22 -23.5t-11.5 -10q-6 -5 -11 -16t-5 -19
v-71q0 -8 8 -8h846q8 0 8 8v71q0 8 -5 19t-11 16q-5 4 -11.5 10t-22 23.5t-27 35.5t-21 43.5t-9.5 48.5t9.5 48.5t21 43.5t27 35.5t22 23.5t11.5 10q6 5 11 16t5 19v71q0 8 -8 8h-846zM279 669h49v-24h-49v24zM328 156h-49v49h49v-49zM328 237h-49v49h49v-49zM328 319h-49
v49h49v-49zM328 400h-49v49h49v-49zM328 482h-49v49h49v-49zM328 563h-49v49h49v-49zM279 123h49v-24h-49v24zM722 503h-234q-10 0 -17 7t-7 17t7 17.5t17 7.5h234q10 0 17.5 -7.5t7.5 -17.5t-7.5 -17t-17.5 -7zM722 370h-234q-10 0 -17 7t-7 17t7 17.5t17 7.5h234
q10 0 17.5 -7.5t7.5 -17.5t-7.5 -17t-17.5 -7zM722 237h-234q-10 0 -17 7t-7 17.5t7 17.5t17 7h234q10 0 17.5 -7t7.5 -17.5t-7.5 -17.5t-17.5 -7z" />
    <glyph glyph-name="uniE635" unicode="&#xe635;" 
d="M898 48h-772q-39 0 -66.5 27.5t-27.5 66.5v484q0 39 27.5 66.5t66.5 27.5h772q39 0 66.5 -27.5t27.5 -66.5v-484q0 -39 -27.5 -66.5t-66.5 -27.5zM126 669q-18 0 -30.5 -12.5t-12.5 -30.5v-484q0 -18 12.5 -30.5t30.5 -12.5h772q18 0 30.5 12.5t12.5 30.5v484
q0 18 -12.5 30.5t-30.5 12.5h-772zM58 540h908v-51h-908v51zM377 184h-184q-11 0 -18.5 7.5t-7.5 18t7.5 18t18.5 7.5h184q11 0 18.5 -7.5t7.5 -18t-7.5 -18t-18.5 -7.5zM576 184h-94q-11 0 -18.5 7.5t-7.5 18t7.5 18t18.5 7.5h94q10 0 17.5 -7.5t7.5 -18t-7.5 -18
t-17.5 -7.5z" />
    <glyph glyph-name="uniE636" unicode="&#xe636;" 
d="M935 456h-178q-11 0 -18 7.5t-7 18t7 18t18 7.5h152v169q0 11 7.5 18t18 7t18 -7t7.5 -18v-195q0 -10 -7.5 -17.5t-17.5 -7.5zM507 -59q-90 0 -172 35t-141.5 94.5t-94.5 141.5t-35 172t35 172t94.5 141.5t141.5 94.5t172 35q154 0 274 -95t156 -244q3 -11 -2.5 -19.5
t-16 -11t-19.5 3t-11 15.5q-32 132 -138.5 216t-242.5 84q-107 0 -197 -52.5t-142.5 -143t-52.5 -196.5t52.5 -196.5t142.5 -143t197 -52.5q115 0 212 62.5t145 167.5q4 9 14 13t19.5 -0.5t13 -14.5t-0.5 -19q-54 -118 -163.5 -189t-239.5 -71zM680 432h-373q-11 0 -18.5 7
t-7.5 17.5t7.5 18t18.5 7.5h373q11 0 18.5 -7.5t7.5 -18t-7.5 -17.5t-18.5 -7zM680 272h-373q-11 0 -18.5 7.5t-7.5 18t7.5 18t18.5 7.5h373q11 0 18.5 -7.5t7.5 -18t-7.5 -18t-18.5 -7.5zM292 283zM706 283zM406.5 448q-10.5 0 -18 7.5t-7.5 17.5v76q0 11 7.5 18t18 7
t18 -7t7.5 -18v-76q0 -10 -7.5 -17.5t-18 -7.5zM580.5 448q-10.5 0 -18 7.5t-7.5 17.5v76q0 11 7.5 18t18 7t18 -7t7.5 -18v-76q0 -10 -7.5 -17.5t-18 -7.5zM500.5 99q-10.5 0 -18 7.5t-7.5 18.5v332q0 10 7.5 17.5t18 7.5t18 -7.5t7.5 -17.5v-332q0 -11 -7.5 -18.5
t-18 -7.5z" />
    <glyph glyph-name="uniE637" unicode="&#xe637;" 
d="M447 -48q-26 0 -42 26l-48 81q-4 6 -14 12t-18 6h-230q-26 0 -44.5 18.5t-18.5 44.5v467q0 26 18.5 44.5t44.5 18.5h704q26 0 45 -18.5t19 -44.5v-467q0 -26 -19 -44.5t-45 -18.5h-229q-8 0 -18 -6t-14 -12l-49 -81q-16 -26 -42 -26zM95 616q-9 0 -9 -9v-467q0 -9 9 -9
h230q22 0 44.5 -12.5t33.5 -31.5l44 -73l44 73q12 19 34.5 31.5t44.5 12.5h229q9 0 9 9v467q0 9 -9 9h-704zM271 368zM224 368q0 20 14 33.5t33.5 13.5t33.5 -13.5t14 -33.5t-14 -33.5t-33.5 -13.5t-33.5 13.5t-14 33.5zM447 368zM400 368q0 20 14 33.5t33.5 13.5
t33.5 -13.5t14 -33.5t-14 -33.5t-33.5 -13.5t-33.5 13.5t-14 33.5zM623 368zM576 368q0 20 14 33.5t33.5 13.5t33.5 -13.5t14 -33.5t-14 -33.5t-33.5 -13.5t-33.5 13.5t-14 33.5zM929 222h-77q-12 0 -19.5 8t-7.5 19.5t7.5 19.5t19.5 8h77q9 0 9 9v467q0 9 -9 9h-740
q-12 0 -20 8t-8 19t8 19t20 8h740q26 0 44.5 -18.5t18.5 -44.5v-467q0 -26 -18.5 -45t-44.5 -19z" />
    <glyph glyph-name="uniE638" unicode="&#xe638;" 
d="M967 110q-10 0 -17.5 7.5t-7.5 17.5v540q0 9 -8 9h-622q-4 0 -8 -4t-5 -8l-10 -66q-2 -18 -13 -38.5t-24 -32.5l-154 -138q-6 -5 -11 -16.5t-5 -20.5v-220q0 -10 -7.5 -17.5t-17.5 -7.5t-17.5 7.5t-7.5 17.5v220q0 19 9.5 40.5t23.5 34.5l153 137q7 7 13.5 19t8.5 22
l9 66q4 23 22 39t41 16h622q24 0 41 -17.5t17 -41.5v-540q0 -10 -7.5 -17.5t-17.5 -7.5zM284.5 34q-48.5 0 -82.5 34.5t-34 82.5t34 82t82.5 34t82.5 -34t34 -82t-34 -82.5t-82.5 -34.5zM284.5 217q-27.5 0 -47 -19.5t-19.5 -47t19.5 -47t47 -19.5t47 19.5t19.5 47t-19.5 47
t-47 19.5zM753 34q-48 0 -82 34.5t-34 82.5t34 82t82 34t82.5 -34t34.5 -82t-34.5 -82.5t-82.5 -34.5zM753.5 217q-27.5 0 -47 -19.5t-19.5 -47t19.5 -47t47 -19.5t47 19.5t19.5 47t-19.5 47t-47 19.5zM662 126h-267q-11 0 -18 7t-7 17.5t7 18t18 7.5h267q10 0 17.5 -7.5
t7.5 -18t-7.5 -17.5t-17.5 -7zM345 332h-164q-10 0 -17.5 7.5t-7.5 18t7.5 17.5t17.5 7h114v159q0 10 7.5 17.5t17.5 7.5t17.5 -7.5t7.5 -17.5v-209z" />
    <glyph glyph-name="uniE639" unicode="&#xe639;" 
d="M107 474q-25 0 -44 16t-22 41l-8 51q-4 28 12 50t44 27l797 122q27 4 49.5 -12.5t26.5 -43.5l8 -52q4 -27 -12.5 -49.5t-43.5 -26.5l-797 -122q-5 -1 -10 -1zM896 724l-799 -122q-9 -1 -8 -11l8 -52q2 -9 11 -8l797 123q10 1 8 11l-8 51q-1 8 -9 8zM925 -14h-806
q-28 0 -47.5 20t-19.5 47v358q0 28 19.5 47.5t47.5 19.5h806q28 0 47.5 -19.5t19.5 -47.5v-358q0 -27 -19.5 -47t-47.5 -20zM119 421q-10 0 -10 -10v-358q0 -9 10 -9h806q10 0 10 9v358q0 10 -10 10h-806z" />
    <glyph glyph-name="uniE63A" unicode="&#xe63a;" 
d="M823 -31h-680q-46 0 -78.5 32.5t-32.5 78.5v393q0 46 32.5 79t78.5 33h680q46 0 78.5 -33t32.5 -79v-99h-60v99q0 21 -15 36t-36 15h-680q-21 0 -35.5 -15t-14.5 -36v-393q0 -21 14.5 -35.5t35.5 -14.5h680q21 0 36 14.5t15 35.5v90h60v-90q0 -46 -32.5 -78.5
t-78.5 -32.5zM921 140h-310q-30 0 -50.5 20.5t-20.5 49.5v124q0 29 20.5 50t50.5 21h310q29 0 50 -21t21 -50v-124q0 -29 -21 -49.5t-50 -20.5zM611 344q-4 0 -7 -3t-3 -7v-124q0 -4 3 -7t7 -3h310q4 0 7 3t3 7v124q0 4 -3 7t-7 3h-310zM589 307h96v-61h-96v61zM111 520
q-11 30 3 57t46 39l493 178q31 12 61 -2t41 -46l71 -194l-57 -20l-71 194q-2 7 -9.5 10.5t-14.5 0.5l-493 -178q-17 -7 -13 -18z" />
    <glyph glyph-name="uniE63B" unicode="&#xe63b;" 
d="M199 -109v257q0 14 10 24t24 10t23.5 -10t9.5 -24v-138l156 94l12 -2q40 -6 78 -6q112 0 207 47.5t150.5 130t55.5 179.5t-55.5 179t-150.5 130t-207 48t-207 -48t-150.5 -130t-55.5 -179q0 -126 92 -224q9 -10 8.5 -24t-10.5 -23.5t-24 -9t-23 10.5q-53 57 -81.5 126.5
t-28.5 143.5q0 115 64.5 212.5t175 154.5t240.5 57t240.5 -57t175 -154.5t64.5 -212.5t-64.5 -213t-175 -154.5t-240.5 -56.5q-38 0 -77 5zM735 397q-23 0 -39.5 16.5t-16.5 39.5t16.5 39.5t39.5 16.5t39.5 -16.5t16.5 -39.5t-16.5 -39.5t-39.5 -16.5zM512 397
q-23 0 -39.5 16.5t-16.5 39.5t16.5 39.5t39.5 16.5t39.5 -16.5t16.5 -39.5t-16.5 -39.5t-39.5 -16.5zM289 397q-23 0 -39.5 16.5t-16.5 39.5t16.5 39.5t39.5 16.5t39.5 -16.5t16.5 -39.5t-16.5 -39.5t-39.5 -16.5zM289 397z" />
    <glyph glyph-name="uniE63C" unicode="&#xe63c;" 
d="M294 377v458h436v-458l-128 129l-90 -63l-90 63zM416 579l96 -67l97 67l65 -65v265h-324v-265zM322 626zM342 245l-40 40l114 113l96 -67l97 67l113 -113l-40 -40l-80 80l-90 -63l-90 63zM835 -67h-646q-65 0 -111 46t-46 111v533q0 72 34.5 114.5t94.5 42.5h96v-57h-96
q-73 0 -73 -100v-533q0 -42 30 -71.5t71 -29.5h646q41 0 71 29.5t30 71.5v533q0 100 -73 100h-95v57h95q60 0 94.5 -42.5t34.5 -114.5v-533q0 -65 -46 -111t-111 -46zM513 271z" />
    <glyph glyph-name="uniE63D" unicode="&#xe63d;" horiz-adv-x="1025" 
d="M1024 723h-117q5 53 -15 96.5t-64 71.5q-2 -5 -6 -14t-25.5 -37t-55.5 -55q-20 -17 -42 -32q-87 16 -191 16q-100 0 -184 -15q-21 14 -41 31q-34 27 -55.5 53.5t-26.5 39.5l-5 13q-44 -28 -64 -72t-15 -96h-117q0 -49 28.5 -87t73.5 -51q-35 -292 -49 -410q-7 -57 28 -85
t94 -28h201q-10 -24 -10 -50q0 -52 35.5 -91t87.5 -44l6 91q-16 2 -27 15t-11 29q0 19 13 32t32 13t32 -13t13 -32q0 -16 -11 -29t-27 -15l6 -91q52 5 87.5 44t35.5 91q0 26 -10 50h221q59 0 94 28t28 85q-14 118 -49 410q45 13 73.5 51t28.5 87zM720 558q41 0 70 -29
t29 -70h-198q0 41 29 70t70 29zM304 599q41 0 70 -29t29 -70t-29 -70t-70 -29t-70 29t-29 70t29 70t70 29zM837 130h-650q-74 0 -66 57q6 42 63 74t142.5 48.5t182.5 16.5h1h2v0h2h1q97 0 182.5 -16.5t142.5 -48.5t63 -74q8 -57 -66 -57zM321 500zM261 500q0 25 17.5 43
t43 18t43 -18t17.5 -43t-17.5 -43t-43 -18t-43 18t-17.5 43zM202 224q-16 -7 -28 -24q-14 -20 -4 -35q8 -12 24 -11q12 0 31 14q36 25 20 49q-7 11 -22 11.5t-21 -4.5zM822 224q-6 5 -21 4.5t-22 -11.5q-16 -24 20 -49q19 -14 31 -14q16 -1 24 11q10 15 -4 35q-5 7 -12 13
t-12 9z" />
    <glyph glyph-name="uniE63E" unicode="&#xe63e;" 
d="M512 864q-130 0 -240.5 -64.5t-175 -175t-64.5 -240.5t64.5 -240.5t175 -175t240.5 -64.5t240.5 64.5t175 175t64.5 240.5t-64.5 240.5t-175 175t-240.5 64.5zM512 -54q-89 0 -170 34.5t-140 93.5t-93.5 140t-34.5 170t34.5 170t93.5 140t140 93.5t170 34.5t170 -34.5
t140 -93.5t93.5 -140t34.5 -170t-34.5 -170t-93.5 -140t-140 -93.5t-170 -34.5zM502 135l91 379q5 25 -11 37t-38 -1l-164 -97l22 -36l145 86l-89 -377q-6 -24 10 -36q7 -6 18 -6q10 0 20 5l121 65l-20 37zM613 667.5q-8 2.5 -16 -3.5t-11 -17l-10 -37q-3 -11 2 -14.5
t14 2.5l4 2q10 6 19 17t11.5 21t-1.5 18.5t-12 11z" />
    <glyph glyph-name="uniE63F" unicode="&#xe63f;" 
d="M888 11l-59 667h-130q-13 78 -58 126q-25 27 -58.5 41.5t-49 16.5t-24.5 2q-82 -6 -129 -63q-38 -47 -49 -123h-138l-2 -26q-46 -584 -53 -640q-4 -27 2.5 -49t19 -33.5t24 -17.5t22.5 -8h2h3q220 12 303 12q76 0 272 -12h3h7q38 0 62 25q31 31 30 82zM423 766
q32 39 88 43q5 0 15 -1.5t33.5 -12t40.5 -29.5q31 -33 42 -88h-255q9 55 36 88zM358 574q0 -6 -5 -3q-2 1 -2 3q0 3 3.5 3t3.5 -3zM818 -33q-7 -7 -22 -7h-7q-197 12 -275 12q-83 0 -302 -12q-24 6 -19 45q9 66 51 617h83v-18q-14 -12 -14 -30q0 -17 12.5 -29t29 -12t29 12
t12.5 29t-13 29q-1 8 -1 19h266q1 -10 0 -21q-11 -12 -11 -27q0 -17 12 -29t29 -12t29.5 12t12.5 29q0 19 -16 32v16h74l54 -614q0 -27 -14 -41zM682 574q0 -3 -3.5 -3t-3.5 3t3.5 3t3.5 -3zM515 457h-18v-89q0 -8 5.5 -13.5t13 -5.5t13 5.5t5.5 13.5v50q64 -7 106.5 -55
t42.5 -112q0 -69 -49 -118.5t-118.5 -49.5t-118.5 49.5t-49 118.5q0 68 47 117l27 -39q65 -95 73 -103q10 -9 23 -9t22.5 9t9.5 22.5t-9 22.5q-8 8 -104 74l-39 26q4 6 4 12q0 8 -5 13q-6 6 -14 6t-13 -6q-60 -60 -60 -145t60 -145.5t145 -60.5t145.5 60.5t60.5 145.5
t-60.5 145.5t-145.5 60.5z" />
    <glyph glyph-name="uniE640" unicode="&#xe640;" 
d="M992 827h-960v-688h536l197 -198l49 49l-218 217h-496v552h824v-552h-160v-68h228v688zM310 476zM255 476.5q0 22.5 16 38.5t38.5 16t38.5 -16t16 -38.5t-16 -38.5t-38.5 -16t-38.5 16t-16 38.5zM512 476zM458 476.5q0 22.5 15.5 38.5t38.5 16t38.5 -16t15.5 -38.5
t-15.5 -38.5t-38.5 -16t-38.5 16t-15.5 38.5zM714 476zM660 476.5q0 22.5 16 38.5t38.5 16t38.5 -16t16 -38.5t-16 -38.5t-38.5 -16t-38.5 16t-16 38.5z" />
    <glyph glyph-name="uniE641" unicode="&#xe641;" 
d="M513.5 137q83.5 0 142.5 53.5t59 129.5v361q0 76 -59 129.5t-142.5 53.5t-142.5 -53.5t-59 -129.5v-361q0 -76 59 -129.5t142.5 -53.5zM859 515q-1 29 -27 29q-12 0 -20.5 -8.5t-8.5 -20.5h-1v-136q0 -121 -84 -206.5t-205 -85.5t-206.5 85.5t-85.5 206.5v136
q0 31 -27 31q-13 0 -21.5 -8.5t-8.5 -20.5v-1l1 -1h-1v-138q0 -140 90.5 -237t228.5 -109v-66h-231v-61h519v61h-227v66q137 12 226.5 109t89.5 237v138h-1z" />
    <glyph glyph-name="uniE642" unicode="&#xe642;" 
d="M517 -64q-17 0 -30 9q-23 16 -52 37t-91 70.5t-112.5 96t-101 105.5t-72.5 106q-10 19 -19 41.5t-17 67t-5.5 87.5t25.5 96t68 99q7 7 19 16.5t37.5 26.5t61 27.5t71.5 10.5q119 0 210 -118q92 115 215 115q65 0 132 -35q9 -4 19.5 -11t32.5 -25.5t39.5 -40t33.5 -55.5
t21 -71q6 -40 6.5 -73.5t-9.5 -81t-33 -91.5q-11 -24 -47.5 -69.5t-63.5 -70.5q-72 -68 -169 -150.5t-140 -110.5q-13 -8 -29 -8zM117 394l3 -5q26 -56 103 -134.5t150.5 -138t143.5 -109.5q44 31 135.5 108.5t155.5 138.5q24 23 56.5 64t40.5 58q27 51 33 104t-3 102
q-4 28 -17 54t-26.5 42t-31 30t-24.5 18.5t-12 7.5q-52 27 -100 27q-34 0 -64.5 -12.5t-54 -33t-39 -39.5t-28.5 -40l-28 -46l-30 46q-80 128 -181 128q-35 0 -71.5 -16.5t-49 -27t-20.5 -17.5q-36 -37 -54 -81t-20 -78t5.5 -69.5t14 -51.5t13.5 -29z" />
    <glyph glyph-name="uniE643" unicode="&#xe643;" 
d="M464 336q20 -20 48 -20t48 20t20 48t-20 48q-22 22 -276 196l-52 36l36 -52q174 -254 196 -276zM512 864h-30v-199q0 -13 8.5 -22t21.5 -9t21.5 9t8.5 22v137q108 -8 197.5 -65.5t140.5 -150.5t51 -202q0 -114 -56 -210.5t-152.5 -152.5t-210.5 -56t-210.5 56
t-152.5 152.5t-56 210.5q0 84 31.5 160.5t90.5 135.5q9 9 9 21.5t-9 21.5q-8 9 -21 9t-22 -9q-68 -68 -104 -155.5t-36 -183.5q0 -130 64.5 -240.5t175 -175t240.5 -64.5t240.5 64.5t175 175t64.5 240.5t-64.5 240.5t-175 175t-240.5 64.5z" />
    <glyph glyph-name="uniE644" unicode="&#xe644;" 
d="M512 -96q-10 0 -21 1q-40 4 -69.5 21t-28.5 46q12 321 43 421l2 4q-10 5 -49 17q-140 42 -217 97q-48 34 -81 74q-32 39 -46 79q-32 85 10 145q32 47 94 54q47 5 100 -17q56 -23 110 -72q33 -31 63 -71.5t43 -64.5t33 -62q19 -37 25 -45q10 6 47 47q49 55 80 81
q65 53 127 78q62 24 112 18q52 -8 80 -47q34 -50 18 -112q-12 -44 -49.5 -82t-95.5 -65q-77 -36 -186 -54q-49 -8 -53 -13q-10 -15 -20 -70q-14 -72 -10 -143q2 -46 27 -138l1 -4q14 -49 11 -62q-5 -37 -48 -53q-23 -8 -52 -8zM456 -22q15 -8 41 -11q28 -2 46 4q4 2 7 4
q-2 9 -9 36l-1 4q-27 97 -30 151q-4 78 11 158q14 72 32 96q13 17 33 23.5t60 13.5q100 16 170 49q93 43 110 107q9 33 -9 59q-11 17 -37 21q-33 4 -80 -14q-53 -22 -110 -69q-28 -23 -73 -73q-23 -26 -34.5 -38t-29 -22t-33.5 -10h-3q-24 1 -38.5 19t-36.5 62
q-18 35 -30 57t-39 58.5t-57 64.5q-45 42 -91 61q-38 15 -69 12q-33 -4 -50 -27q-23 -34 -3 -88q12 -30 37 -61q27 -34 68 -63q69 -49 199 -88q25 -8 36.5 -12t25.5 -11t20.5 -15t9.5 -20q5 -18 -3 -41q-28 -92 -40 -397z" />
    <glyph glyph-name="uniE645" unicode="&#xe645;" 
d="M892 32h-797v619q0 13 -9 22t-22.5 9t-22.5 -9t-9 -22v-650q0 -13 9 -22.5t23 -9.5h828q13 0 22.5 9.5t9.5 22.5t-9.5 22t-22.5 9zM990 658l-41 120q-4 12 -15.5 17.5t-23.5 2.5l-130 -38q-13 -3 -19.5 -14.5t-3 -24t15 -19t24.5 -2.5l61 17l-265 -508l-195 348
q-8 14 -23 16q-16 1 -27 -10l-203 -216q-9 -9 -8.5 -22t10 -22t22.5 -9t22 10l173 184l202 -361q9 -16 28 -16t28 17l291 559l18 -50q7 -21 30 -21q5 0 10 2q12 4 18 16t1 24z" />
    <glyph glyph-name="uniE646" unicode="&#xe646;" 
d="M383 839v0v-53v53zM990.5 457q-7.5 23 -32.5 23h-158q8 14 22 38q43 77 43 135v159q0 13 -9.5 21.5t-24.5 8.5h-191q-10 0 -17.5 -9.5t-7.5 -19.5q0 -11 7 -20t17 -10h166v-130q0 -44 -35 -106l-3 -5q-24 -41 -32 -62h-95l-98 289q-3 10 -12 16q-10 7 -19 7q-12 0 -21 -7
q-9 -6 -13 -16l-95 -289h-94q-7 18 -26 53q-6 9 -8 14q-36 60 -36 106v130h163h1h1q12 0 21.5 9t9.5 20.5t-9.5 20.5t-21.5 9h-1h-188q-15 0 -24.5 -8.5t-9.5 -21.5v-159q0 -60 43 -135l2 -3q14 -24 19 -35h-158q-25 0 -32.5 -23t12.5 -37l246 -166l-91 -286q-7 -22 12 -36
q9 -6 20 -6t19 6l260 169l251 -169q9 -6 20 -6t20 6q20 14 12 37l-96 278l258 173q21 14 13.5 37zM383 839v0v-53v53zM666 292q-22 -14 -13 -38l76 -220l-197 133q-21 13 -41 0l-210 -137l74 232q8 24 -14 38l-187 127h246q26 0 34 24l75 227l77 -227q8 -24 34 -24h248z" />
    <glyph glyph-name="uniE647" unicode="&#xe647;" 
d="M929 606q-26 0 -44.5 -18.5t-18.5 -44.5q0 -3 1 -9q-13 -4 -26 -14l-127 -89l-155 270q13 17 13 38q0 26 -18.5 44.5t-44.5 18.5t-44.5 -18.5t-18.5 -44.5q0 -24 16 -42l-154 -270q-30 21 -53 38l-72 53q-13 10 -26 15q1 6 1 10q0 27 -18.5 45t-44.5 18t-44.5 -18.5
t-18.5 -44.5q0 -22 13.5 -39t34.5 -22q0 -13 3 -29l88 -380q11 -45 50.5 -76t85.5 -31h202h6h202q46 0 85.5 31t49.5 76l89 380q3 15 3 29q21 5 34.5 22t13.5 39q0 26 -18.5 44.5t-44.5 18.5zM512 655l149 -261l-153 -108l-115 80q-11 8 -33 23zM878 468l-88 -380
q-5 -23 -27 -40.5t-46 -17.5h-202h-6h-202q-24 0 -46 17.5t-27 40.5l-88 378l71 -53q69 -50 140 -100l151 -105v1l1 -1l369 260l1 1z" />
    <glyph glyph-name="uniE648" unicode="&#xe648;" 
d="M517 859q-95 0 -183 -36t-158 -103q-69 -68 -106.5 -154.5t-37.5 -181.5t37.5 -181.5t106.5 -154.5q70 -67 158 -103t183 -36q100 0 190 40q6 2 8.5 8t0 12t-8.5 8.5t-12 -0.5q-85 -37 -178 -37q-90 0 -174 36t-145.5 95.5t-98 141.5t-36.5 171t36.5 171t98 141.5
t145.5 95.5t174 36t172.5 -35t142 -94.5t94.5 -142t35 -172.5q0 -104 -45 -196q-7 -14 7 -21q5 -3 11 -0.5t9 7.5q49 99 49 210q0 96 -37.5 184t-101.5 152t-151.5 101.5t-184.5 37.5zM257 367.5q3 -9.5 12 -10.5l144 -24l62 -131q4 -9 14 -9t14 8l67 130l114 15q6 0 10 5
t3.5 11.5t-6 10.5t-11.5 3l-122 -16q-8 -1 -12 -8l-56 -109l-52 111q-4 7 -12 9l-121 19l89 84q6 6 5 14l-18 121l107 -59q7 -4 14 0l110 55l-23 -120q-2 -8 4 -14l52 -52q11 -11 22 0t0 22l-46 46l27 143q2 9 -6 15t-16 2l-130 -66l-128 70q-8 5 -16 -0.5t-7 -15.5l22 -144
l-106 -100q-7 -6 -4 -15.5zM697 123q8 -11 19 -3t3 19l-106 153q-8 11 -19 3t-4 -19z" />
    <glyph glyph-name="uniE649" unicode="&#xe649;" 
d="M246 246q0 -12 10.5 -21t25.5 -9h418q15 0 25.5 9t10.5 21t-8 22t-18 15q-2 2 -2 7.5t2 7.5q26 13 26 31.5t-26 31.5q-2 2 -2 7t2 8q26 13 26 31.5t-26 31.5q-2 2 -2 7t2 7q26 13 26 31.5t-26 31.5q-2 2 -2 7.5t2 7.5q10 5 18 15.5t8 21.5q0 13 -10.5 21.5t-25.5 8.5
h-418q-15 0 -25.5 -8.5t-10.5 -21.5q0 -11 8 -21.5t18 -15.5q2 -2 2 -7.5t-2 -7.5q-26 -13 -26 -31.5t26 -31.5q2 -2 2 -7t-1 -7q-27 -13 -27 -31.5t26 -31.5q2 -3 2 -8t-2 -7q-26 -13 -26 -31.5t26 -31.5q2 -2 2 -7.5t-2 -7.5q-10 -5 -18 -15.5t-8 -21.5zM282 567h418
q2 0 4 -1q-3 -5 -9 -8q-18 -8 -18 -34.5t18 -34.5q4 -2 7 -4q-3 -2 -7 -4q-18 -9 -18 -35t18 -35q4 -2 7 -4q-3 -2 -7 -4q-18 -9 -18 -35t18 -35q4 -1 7 -4q-3 -2 -7 -4q-18 -8 -18 -34.5t18 -34.5q6 -3 9 -8q-1 -1 -4 -1h-418q-2 0 -4 1q3 5 9 8q18 8 18 34.5t-18 34.5
q-4 2 -7 4q3 3 7 4q18 9 18 35t-18 35q-4 2 -7 4q3 3 7 4q18 9 18 35t-18 35q-4 2 -7 4q3 2 7 4q18 8 18 34.5t-18 34.5q-6 3 -9 8q2 1 4 1zM762.5 538q-6.5 0 -11 -4.5t-4.5 -11.5v-316q0 -5 -5 -5h-419q-6 0 -10.5 -4.5t-4.5 -11t4.5 -11t10.5 -4.5h419q15 0 25.5 10.5
t10.5 25.5v316q0 7 -4.5 11.5t-11 4.5zM412 467h163q7 0 11.5 4.5t4.5 11t-4.5 11t-11.5 4.5h-163q-6 0 -10.5 -4.5t-4.5 -11t4.5 -11t10.5 -4.5zM412 392h163q7 0 11.5 4.5t4.5 10.5t-4.5 11t-11.5 5h-163q-6 0 -10.5 -4.5t-4.5 -11t4.5 -11t10.5 -4.5zM412 316h163
q7 0 11.5 5t4.5 11t-4.5 10.5t-11.5 4.5h-163q-6 0 -10.5 -4.5t-4.5 -10.5t4.5 -11t10.5 -5zM517 859q-95 0 -183 -36t-158 -103q-69 -68 -106.5 -154.5t-37.5 -181.5t37.5 -181.5t106.5 -154.5q70 -67 158 -103t183 -36q100 0 190 40q6 2 8.5 8t0 12t-8.5 8.5t-12 -0.5
q-85 -37 -178 -37q-90 0 -174 36t-145.5 95.5t-98 141.5t-36.5 171t36.5 171t98 141.5t145.5 95.5t174 36t172.5 -35t142 -94.5t94.5 -142t35 -172.5q0 -104 -45 -196q-7 -14 7 -21q5 -3 11 -0.5t9 7.5q49 99 49 210q0 96 -37.5 184t-101.5 152t-151.5 101.5t-184.5 37.5z
" />
    <glyph glyph-name="uniE64A" unicode="&#xe64a;" 
d="M362 558zM756 506h-48q6 10 7 21q7 42 -17 71q-20 24 -54 24q-38 0 -65 -33q-11 -14 -18 -31q-10 3 -24 5q-22 2 -39 -6q-1 3 -4 8q-30 50 -62 60q-23 6 -39 0q-15 -5 -25 -20t-11 -45v-2q0 -6 4 -10t10 -4t10.5 4.5t4.5 9.5q0 23 6 31q7 10 18 10q6 0 14 -2
q21 -6 45 -46q6 -10 8 -15q-3 -6 -4 -12q-1 -10 0 -18h-8q-18 0 -26 3q-12 4 -50 21q-19 9 -24 11q-29 11 -50 11q-9 0 -17 -1q-14 -3 -25 -8t-16 -11t-8 -12.5t-3.5 -9.5t-1.5 -5q0 -5 4.5 -9t10.5 -4q13 0 14 12q0 2 1.5 4.5t8.5 7.5t19 6q7 1 13 1q16 0 39 -9
q5 -1 23 -10q39 -17 53 -22q12 -5 35 -5q4 0 6 1h43v-82h-209v82h94l-60 28h-40q-10 0 -16.5 -5t-6.5 -13v-122h39v-204q0 -9 6 -15.5t15 -6.5h384q9 0 15 6.5t6 15.5v204h39v122q0 8 -7 13t-17 5zM362 558zM514 169h-170v197h170v-197zM644 594q20 0 32 -14q16 -19 11 -48
q-2 -15 -17 -26h-81q1 9 0 20q-1 7 -4 12q6 23 22 39.5t37 16.5zM535 507h-12h-6h-7q-6 0 -8 1q-2 2 0 12q0 6 7.5 10.5t18.5 4.5q2 0 6 -1q25 -2 26 -12q2 -13 0 -13q-2 -2 -22 -2h-3zM713 169h-171v197h171v-197zM750 396h-208v82h208v-82zM512 864q-198 0 -339 -141
t-141 -339t141 -339t339 -141q101 0 192 40q6 3 8.5 9t0 11.5t-9 8t-11.5 0.5q-86 -38 -180 -38q-91 0 -174 35.5t-143.5 96t-96 143.5t-35.5 174t35.5 174t96 143.5t143.5 96t174 35.5t174 -35.5t143.5 -96t96 -143.5t35.5 -174q0 -105 -46 -198q-3 -6 -1 -12t8 -9t12 -1
t9 8q49 100 49 212q0 198 -141 339t-339 141z" />
    <glyph glyph-name="uniE64B" unicode="&#xe64b;" 
d="M512 864q-130 0 -240.5 -64.5t-175 -175t-64.5 -240.5t64.5 -240.5t175 -175t240.5 -64.5q101 0 192 40q6 3 8.5 9t0 11.5t-9 8t-11.5 0.5q-86 -38 -180 -38q-91 0 -174 35.5t-143.5 96t-96 143.5t-35.5 174t35.5 174t96 143.5t143.5 96t174 35.5t174 -35.5t143.5 -96
t96 -143.5t35.5 -174q0 -105 -46 -198q-3 -6 -1 -12t8 -9t12 -1t9 8q49 100 49 212q0 130 -64.5 240.5t-175 175t-240.5 64.5zM731 192h-462v359q0 6 -4.5 10.5t-11 4.5t-11 -4.5t-4.5 -10.5v-390h493q6 0 11 4.5t5 11t-5 11t-11 4.5zM756 637l-89 -26q-6 -2 -9.5 -7.5
t-1.5 -11.5t7.5 -9.5t11.5 -1.5l41 12l-157 -302l-115 204q-4 7 -11.5 8t-13.5 -5l-117 -124q-10 -11 1 -22t22 1l102 108l118 -211q5 -8 14 -8t14 9l171 327l12 -34q3 -11 14 -11q3 0 5 1q7 2 9.5 8t0.5 12z" />
    <glyph glyph-name="uniE64C" unicode="&#xe64c;" 
d="M267 263q18 0 33.5 9.5t22.5 18t18 23.5q15 21 24.5 29.5t24.5 8.5t24.5 -8.5t23.5 -29.5q11 -15 18 -23.5t22.5 -18t33.5 -9.5t33.5 9.5t22.5 18t18 23.5q14 21 24 29.5t24.5 8.5t24.5 -8.5t24 -29.5q11 -15 18 -23.5t22.5 -18t33.5 -9.5q6 0 10.5 5t4.5 11v133
q0 25 -17 42.5t-41 17.5h-404q-24 0 -41 -17.5t-17 -42.5v-131v-1v-1q0 -6 4.5 -11t10.5 -5zM283 412q0 12 8 20.5t19 8.5h404q11 0 19 -8.5t8 -20.5v-115q-13 6 -33 35q-10 16 -17.5 24.5t-23 17.5t-33 9t-33 -9t-22.5 -17.5t-18 -24.5q-14 -20 -24 -29t-24.5 -9t-24.5 9
t-24 29q-11 16 -18 24.5t-22.5 17.5t-33.5 9t-33.5 -9t-22.5 -17.5t-18 -24.5q-20 -29 -33 -35v115zM785 172h-28v63q0 7 -4.5 11.5t-11 4.5t-11 -4.5t-4.5 -11.5v-63h-429v69q0 6 -4.5 10.5t-11 4.5t-11 -4.5t-4.5 -10.5v-69h-27q-7 0 -11.5 -4.5t-4.5 -11t4.5 -11
t11.5 -4.5h546q7 0 11.5 4.5t4.5 11t-4.5 11t-11.5 4.5zM497 505q0 -6 4.5 -10.5t11 -4.5t11 4.5t4.5 10.5v74q0 6 -4.5 10.5t-11 4.5t-11 -4.5t-4.5 -10.5v-74zM512.5 617q6.5 0 11 4.5t4.5 11.5v20q0 6 -4.5 10.5t-11 4.5t-11 -4.5t-4.5 -10.5v-20q0 -7 4.5 -11.5t11 -4.5
zM626 505q0 -6 4.5 -10.5t11 -4.5t11 4.5t4.5 10.5v74q0 6 -4.5 10.5t-11 4.5t-11 -4.5t-4.5 -10.5v-74zM641.5 607q6.5 0 11 4.5t4.5 11.5v19q0 7 -4.5 11.5t-11 4.5t-11 -4.5t-4.5 -11.5v-19q0 -7 4.5 -11.5t11 -4.5zM368 505q0 -6 4.5 -10.5t11 -4.5t11 4.5t4.5 10.5v74
q0 6 -4.5 10.5t-11 4.5t-11 -4.5t-4.5 -10.5v-74zM383.5 607q6.5 0 11 4.5t4.5 11.5v19q0 7 -4.5 11.5t-11 4.5t-11 -4.5t-4.5 -11.5v-19q0 -7 4.5 -11.5t11 -4.5zM512 864q-130 0 -240.5 -64.5t-175 -175t-64.5 -240.5t64.5 -240.5t175 -175t240.5 -64.5q101 0 192 40
q6 3 8.5 8.5t-0.5 11.5t-8.5 8.5t-11.5 -0.5q-86 -37 -180 -37q-91 0 -174.5 35.5t-143.5 95.5t-95.5 143.5t-35.5 174.5t35.5 174.5t95.5 143.5t143.5 95.5t174.5 35.5t174.5 -35.5t143.5 -95.5t95.5 -143.5t35.5 -174.5q0 -105 -46 -198q-7 -14 7 -21q6 -3 12 -1t9 8
q49 100 49 212q0 130 -64.5 240.5t-175 175t-240.5 64.5z" />
    <glyph glyph-name="uniE64D" unicode="&#xe64d;" 
d="M67 356.5q5 -16.5 22 -19.5l262 -43l113 -239q7 -16 25 -17q17 0 25 16l122 235l208 27q11 2 18 11t5.5 20.5t-10.5 19t-21 5.5l-222 -29q-15 -2 -21 -15l-102 -198l-96 202q-6 13 -20 15l-221 36l163 153q11 10 8 25l-33 220l195 -107q13 -7 26 -1l199 101l-41 -219
q-3 -15 7 -25l94 -95q8 -8 20 -8t20 8t8 19.5t-8 20.5l-83 84l49 260q3 17 -10.5 27.5t-29.5 3.5l-237 -120l-232 128q-16 8 -30 -2t-12 -27l41 -262l-193 -182q-13 -12 -8 -28.5zM868 -88q6 -9 16 -10.5t18.5 4.5t10 16t-4.5 18l-194 279q-6 8 -16 10t-18.5 -4t-10 -16
t3.5 -18z" />
    <glyph glyph-name="uniE64E" unicode="&#xe64e;" 
d="M243 696zM950 603h-86q10 18 13 38q12 75 -32 127q-36 44 -96 44q-69 0 -117 -61q-19 -24 -31 -55q-19 6 -45 9q-39 4 -68 -11q-4 7 -9 15q-25 43 -54.5 71t-56.5 36q-41 11 -70 1q-26 -10 -44 -36q-18 -28 -20 -80v-5q0 -10 7.5 -17t18 -7t18 7t7.5 18q2 40 12 56
q12 17 32 17q10 0 25 -4q14 -4 36 -24.5t45 -58.5q10 -17 14 -26q-5 -11 -7 -22q-2 -18 0 -32h-15q-32 0 -45 5q-22 8 -90 39q-35 15 -44 19q-51 20 -90 20q-15 0 -30 -3q-26 -4 -45 -13.5t-28.5 -19.5t-15 -22t-6.5 -17.5t-1 -8.5q0 -10 7.5 -17.5t18.5 -7.5t18 7t7 16
q0 1 1 3t4 6.5t8 8.5t15.5 8t24.5 6q11 2 22 2q30 0 71 -16q9 -4 42 -18q68 -31 93 -40q22 -8 63 -8h11h77v-147h-374v147h168l-107 50l-72 1q-18 0 -30 -9t-12 -23v-219h70v-366q0 -17 11.5 -28.5t27.5 -11.5h688q16 0 27 11.5t11 28.5v366h69v219q0 14 -12 23t-30 9z
M243 696zM515 -2h-305v354h305v-354zM749 760q36 0 57 -25q29 -34 20 -86q-4 -26 -30 -46l-146 1q2 15 0 34q-2 13 -7 23q12 41 40 70t66 29zM554 605q-10 0 -22 -1h-6h-5h-12q-11 0 -15 3q-3 3 -1 22q1 10 14.5 17.5t33.5 7.5h10q46 -5 48 -22q2 -23 -1 -23q-4 -4 -39 -4
h-5zM872 -2h-305v354h305v-354zM939 405h-373v147h373v-147z" />
    <glyph glyph-name="uniE64F" unicode="&#xe64f;" 
d="M896 36h-809v629q0 11 -8 19t-19.5 8t-19.5 -8t-8 -19v-684h864q11 0 19 8t8 19.5t-8 19.5t-19 8zM940 816l-157 -45q-11 -3 -16.5 -13t-2 -21t13 -16.5t20.5 -2.5l72 21l-276 -529l-201 358q-6 12 -20 14q-14 1 -24 -9l-204 -217q-8 -9 -8 -20t8.5 -19t20 -7.5t18.5 8.5
l180 190l206 -369q8 -14 24 -14h1q16 0 23 14l300 574l21 -60q6 -19 26 -19q5 0 9 2q10 3 15 13.5t2 21.5z" />
    <glyph glyph-name="uniE650" unicode="&#xe650;" 
d="M106 170q23 0 42 7t34.5 22t24 25.5t22.5 30.5q23 34 39.5 48t40.5 14t40.5 -14t40.5 -48q13 -20 21.5 -30.5t24 -25.5t34.5 -22t42 -7t42 7t35 22t24.5 25.5t21.5 30.5q24 34 40 48t40.5 14t40.5 -14t40 -48q13 -20 21.5 -30.5t24.5 -25.5t35 -22t42 -7q10 0 17.5 7.5
t7.5 18.5v221q0 41 -28.5 70.5t-68.5 29.5h-670q-40 0 -68.5 -29.5t-28.5 -70.5v-217v-2v-1v-1q0 -11 7.5 -18.5t18.5 -7.5zM132 417q0 20 13 34.5t32 14.5h671q18 0 31.5 -14.5t13.5 -34.5v-190q-14 6 -25.5 19t-29.5 38q-13 19 -21.5 29.5t-24.5 25.5t-35 22.5t-41.5 7.5
t-41.5 -7.5t-35 -22.5t-24.5 -25.5t-21.5 -29.5q-24 -34 -40 -48t-40.5 -14t-41 14t-39.5 48q-14 19 -22.5 29.5t-24 25.5t-34.5 22t-42 7t-42 -7t-34.5 -22t-24 -25.5t-22.5 -29.5q-32 -48 -54 -57v190zM966 18h-47v105q0 11 -7.5 18.5t-18 7.5t-18 -7.5t-7.5 -18.5v-105
h-713v114q0 11 -7.5 18.5t-18 7.5t-18 -7.5t-7.5 -18.5v-114h-46q-11 0 -18.5 -7.5t-7.5 -18t7.5 -18t18.5 -7.5h908q11 0 18.5 7.5t7.5 18t-7.5 18t-18.5 7.5zM487 572q0 -11 7.5 -18.5t18 -7.5t18 7.5t7.5 18.5v122q0 10 -7.5 17.5t-18 7.5t-18 -7.5t-7.5 -17.5v-122z
M512.5 758q10.5 0 18 7.5t7.5 18.5v33q0 10 -7.5 17.5t-18 7.5t-18 -7.5t-7.5 -17.5v-33q0 -11 7.5 -18.5t18 -7.5zM701 572q0 -11 7.5 -18.5t18 -7.5t18 7.5t7.5 18.5v122q0 10 -7.5 17.5t-18 7.5t-18 -7.5t-7.5 -17.5v-122zM726.5 741q10.5 0 18 7.5t7.5 18.5v33
q0 10 -7.5 17.5t-18 7.5t-18 -7.5t-7.5 -17.5v-33q0 -11 7.5 -18.5t18 -7.5zM272 572q0 -11 7.5 -18.5t18.5 -7.5t18.5 7.5t7.5 18.5v122q0 10 -7.5 17.5t-18.5 7.5t-18.5 -7.5t-7.5 -17.5v-122zM298 741q11 0 18.5 7.5t7.5 18.5v33q0 10 -7.5 17.5t-18.5 7.5t-18.5 -7.5
t-7.5 -17.5v-33q0 -11 7.5 -18.5t18.5 -7.5z" />
    <glyph glyph-name="uniE651" unicode="&#xe651;" 
d="M32 136q0 -23 19 -39t46 -16h754q28 0 46.5 16t18.5 39q0 20 -14 38.5t-33 27.5q-4 4 -4 13.5t4 13.5q19 9 33 24.5t14 32.5t-14 32t-33 24q-4 4 -4 14q0 9 4 13q19 10 33 25t14 32t-14 32t-33 25q-3 3 -3 13q0 9 3 13q19 10 33 25t14 32t-14 32t-33 25q-4 4 -4 13.5
t4 13.5q19 9 33 27.5t14 38.5q0 23 -18.5 38.5t-46.5 15.5h-754q-27 0 -46 -15.5t-19 -38.5q0 -20 14 -38.5t34 -27.5q3 -4 3 -13.5t-3 -13.5q-20 -10 -34 -25t-14 -32t14 -32t34 -25q3 -4 3 -13t-3 -13q-20 -10 -34 -25t-14 -32t14 -32.5t34 -24.5q3 -4 3 -13q0 -10 -3 -14
q-20 -9 -34 -24t-14 -32t14 -32.5t34 -24.5q3 -4 3 -13.5t-3 -13.5q-20 -9 -34 -27.5t-14 -38.5zM97 714h754q4 0 8 -1q-6 -10 -16 -14q-5 -2 -11 -6.5t-14 -20.5t-8 -36.5t8.5 -36t14 -20t10.5 -6.5q7 -3 12 -7q-5 -4 -12 -8q-5 -2 -11 -6.5t-14 -20t-8 -36t8.5 -36t14 -20
t10.5 -6.5q6 -3 12 -8q-6 -4 -12 -7q-5 -2 -11 -6.5t-14 -20t-8 -36t8.5 -36.5t14 -20t10.5 -7q7 -3 12 -7q-6 -4 -12 -7q-5 -2 -11 -6.5t-14 -20t-8 -36t8.5 -36.5t14 -20t10.5 -7q10 -5 16 -14q-3 -1 -8 -1h-754q-4 0 -8 1q6 10 16 14q5 2 11 6.5t14.5 20t8.5 36.5
t-8.5 36.5t-14.5 20t-11 6.5q-7 4 -12 7q6 5 12 8q5 2 11 6.5t14.5 20t8.5 36t-8.5 36t-14.5 20t-11 6.5q-6 3 -12 8q6 4 12 7q5 2 11 6.5t14.5 20t8.5 36t-8.5 36.5t-14.5 20t-11 7q-7 3 -12 7q6 4 12 7q5 2 11 6.5t14.5 20t8.5 36.5t-8.5 36.5t-14.5 20t-11 6.5
q-10 5 -16 14q4 1 8 1zM964.5 661q-11.5 0 -20 -8t-8.5 -20v-570q0 -9 -9 -9h-756q-11 0 -19.5 -8.5t-8.5 -20t8.5 -19.5t19.5 -8h756q27 0 46 19t19 46v570q0 12 -8 20t-19.5 8zM332 533h294q12 0 20 8.5t8 20t-8 19.5t-20 8h-294q-12 0 -20 -8t-8 -19.5t8 -20t20 -8.5z
M332 398h294q12 0 20 8t8 19.5t-8 20t-20 8.5h-294q-12 0 -20 -8.5t-8 -20t8 -19.5t20 -8zM332 262h294q12 0 20 8t8 20t-8 20t-20 8h-294q-12 0 -20 -8t-8 -20t8 -20t20 -8z" />
    <glyph glyph-name="uniE652" unicode="&#xe652;" 
d="M943 441h-325q-20 0 -34.5 14.5t-14.5 34.5v325q0 20 14.5 34.5t34.5 14.5h325q20 0 34.5 -14.5t14.5 -34.5v-325q0 -21 -14.5 -35t-34.5 -14zM618 822q-7 0 -7 -7v-325q0 -7 7 -7h325q7 0 7 7v325q0 7 -7 7h-325zM406 441h-325q-20 0 -34.5 14.5t-14.5 34.5v325
q0 20 14.5 34.5t34.5 14.5h325q21 0 35 -14.5t14 -34.5v-325q0 -20 -14.5 -34.5t-34.5 -14.5zM81 822q-7 0 -7 -7v-325q0 -7 7 -7h325q7 0 7 7v325q0 7 -7 7h-325zM406 -96h-325q-20 0 -34.5 14.5t-14.5 34.5v325q0 20 14.5 34.5t34.5 14.5h325q21 0 35 -14.5t14 -34.5v-213
q0 -9 -6 -15t-14.5 -6t-15 6t-6.5 15v213q0 7 -7 7h-325q-7 0 -7 -7v-325q0 -7 7 -7h325q7 0 7 6v28q0 8 6.5 14.5t15 6.5t14.5 -6.5t6 -14.5v-28q0 -20 -14.5 -34t-34.5 -14zM760.5 -30q-70.5 0 -120 49.5t-49.5 120.5t49.5 120.5t120 49.5t120.5 -49.5t50 -120.5
t-50 -120.5t-120.5 -49.5zM760.5 269q-53.5 0 -91 -38t-37.5 -91t38 -91t91 -38t90.5 38t37.5 91t-37.5 91t-91 38zM908 23l63 -64l-29 -30l-64 64z" />
    <glyph glyph-name="uniE653" unicode="&#xe653;" 
d="M462 -10q23 -45 50 -45t50 44q-22 -1 -47 -1q-28 0 -53 2zM498 819h28q-4 8 -14 8t-14 -8zM767 413q-1 3 -1 6v122q0 28 -5 54q-5 27 -14 51t-22 46t-29 40q-16 19 -35 33q-19 15 -40 25t-44 15q-1 1 -13 3v4q0 21 -15 36.5t-37 15.5t-37.5 -15.5t-15.5 -36.5q0 -1 1 -4
q-12 -2 -13 -3q-23 -5 -44 -15l16 -33q17 9 36.5 13.5t39.5 4.5h34q20 0 39 -5q19 -4 37 -13q18 -8 34 -20.5t30 -28.5q13 -15 24.5 -34t19.5 -40q8 -22 12 -45q4 -24 4 -48v-122q0 -12 6 -23l124 -223q-8 -6 -15 -11q-18 -11 -37 -20q-23 -12 -51 -21q-31 -11 -65 -19
q-37 -9 -80 -13q-96 -11 -193 0q-42 4 -81 13q-35 8 -66 19q-26 9 -51 21q-20 9 -39 21l-16 10l124 227q6 11 6 23v118q0 24 4 48q4 23 12 45q8 20 19 40l-31 18q-13 -21 -22 -46q-9 -24 -14 -50q-5 -27 -5 -55v-118q0 -3 -1 -6l-139 -253l16 -13q13 -9 28 -19
q20 -12 42 -23q26 -12 55 -22q33 -12 70 -20q40 -10 85 -14q48 -6 101 -6q52 0 100 5q44 5 84 15q37 8 69 19q28 10 54 23q22 11 41 23q15 9 28 19l15 12zM526 819h-28q4 8 14 8t14 -8zM515 30q-38 0 -84 3l-32 3l10 -30q18 -49 44.5 -75.5t58.5 -26.5q66 0 102 101l11 31
l-32 -3q-44 -3 -78 -3zM512 -55q-27 0 -50 45q25 -2 53 -2q25 0 47 1q-23 -44 -50 -44z" />
    <glyph glyph-name="uniE654" unicode="&#xe654;" 
d="M215 -73l57 331l-240 234l332 48l148 301l148 -301l332 -48l-240 -234l21 -125l-53 -9l-26 153l183 177l-252 37l-113 228l-113 -228l-252 -37l183 -177l-43 -251l225 118l273 -144l-24 -47l-249 130z" />
    <glyph glyph-name="uniE655" unicode="&#xe655;" 
d="M631 550h58v-135h-58v135zM853 550h58v-135h-58v135zM743 395h58v-398h-58v398zM552 430h440v-58h-440v58zM552 243h440v-58h-440v58zM162 555h414v-58h-414v58zM162 398h309v-58h-309v58zM471 124h-368q-29 0 -50 21t-21 50v505q0 29 21 50t50 21h759q29 0 50 -21
t21 -50v-101h-58v101q0 5 -4 9t-9 4h-759q-5 0 -9 -4t-4 -9v-505q0 -5 4 -9t9 -4h368v-58zM904 599z" />
    <glyph glyph-name="uniE656" unicode="&#xe656;" 
d="M512 -96q-130 0 -240.5 64.5t-175 175t-64.5 240.5q0 198 141 339t339 141t339 -141t141 -339q0 -141 -76 -260q-7 -10 -19.5 -13t-23 4t-13.5 19.5t4 23.5q67 103 67 226q0 114 -56 210.5t-152.5 152.5t-210.5 56t-210.5 -56t-152.5 -152.5t-56 -210.5t56 -210.5
t152.5 -152.5t210.5 -56q82 0 157 31q12 4 23.5 -0.5t16.5 -16.5t0 -23.5t-17 -16.5q-86 -35 -180 -35zM574 85h-118v116h118v-116zM686 423q-15 -21 -57 -55l-28 -22q-23 -18 -30 -42q-5 -16 -5 -48h-108q3 68 13 94t53 60l29 23q14 11 22 24q16 21 16 48q0 30 -17.5 55
t-63.5 25t-65 -30.5t-19 -63.5h-113q4 114 78 162q46 30 114 30q89 0 147.5 -43t58.5 -129q0 -52 -25 -88z" />
    <glyph glyph-name="uniE657" unicode="&#xe657;" 
d="M911 221q-12 9 -26 7.5t-22.5 -12.5t-7 -25t12.5 -23q18 -15 37 -50.5t19 -58.5q0 -44 -31 -74.5t-74 -30.5q-54 0 -86 44q-72 102 -102 135q-17 17 -39.5 29t-34.5 16t-42.5 10t-32.5 6q-5 1 -27 5.5t-27 6.5q-93 27 -147 98t-42 151q13 89 99 142q89 54 201 37t181 -95
q66 -75 53 -165q-5 -33 -22 -62q-7 -13 -3 -26.5t16.5 -20.5t26 -3t20.5 16q23 41 30 86q18 121 -70 220q-85 97 -222 118q-137 20 -247 -47q-55 -34 -88.5 -83t-42.5 -107q-15 -100 46 -189.5t170 -128.5q30 -11 92 -22l36 -7q12 -3 33 -11.5t32 -20.5q17 -18 41.5 -50.5
t41.5 -57t18 -25.5q25 -32 61 -50t77 -18q71 0 122 51t51 122q0 40 -25.5 89.5t-55.5 73.5zM911 221zM32 607q0 -28 20 -48.5t48.5 -20.5t48.5 20.5t20 48.5t-20 48t-48.5 20t-48.5 -20t-20 -48zM32 607zM255 706q-19 0 -33 12q-16 14 -18 34.5t11 37.5l5 6q4 3 13 11
t19 15.5t26 17t33 17.5t40 14t47 9.5t53.5 2t60.5 -7.5q21 -4 32.5 -21.5t7.5 -38.5t-21.5 -33t-38.5 -7q-27 5 -52 5t-43.5 -3.5t-36 -10t-28.5 -13t-20.5 -14t-12.5 -10.5l-5 -5q-15 -18 -39 -18zM255 706z" />
    <glyph glyph-name="uniE658" unicode="&#xe658;" 
d="M877 837l115 -115l-51 -51l-115 115zM322 280l-13 -90q-2 -16 9 -27q9 -9 22 -9h5l90 13q11 2 18 9l430 430q9 9 9 22.5t-9 22.5t-22.5 9t-22.5 -9l-422 -423l-38 -5l5 38l417 417q9 9 9 22t-9 22.5t-22 9.5t-22 -10l-425 -424q-7 -8 -9 -18zM926 402q-13 0 -22 -9
t-9 -22v-277q0 -42 -29.5 -71t-70.5 -29h-601q-41 0 -70 29t-29 71v540q0 99 71 99h372q13 0 22 9t9 22t-9 22.5t-22 9.5h-372q-62 0 -98 -43.5t-36 -118.5v-540q0 -68 47.5 -115.5t114.5 -47.5h601q68 0 115.5 47.5t47.5 115.5v277q0 13 -9.5 22t-22.5 9z" />
    <glyph glyph-name="uniE659" unicode="&#xe659;" 
d="M317 247q3 7 6 16h468q35 0 67 22.5t44 54.5l85 226q13 37 -6.5 65.5t-58.5 28.5h-589q-10 0 -17 -7t-7 -17.5t7 -17.5t17 -7h589q14 0 19 -7t0 -21l-85 -226q-7 -18 -26 -31.5t-39 -13.5h-459q3 42 -6 73l-104 338q-10 33 -40.5 56t-63.5 23h-62q-10 0 -17 -7t-7 -17.5
t7 -17.5t17 -7h62q17 0 34.5 -13.5t22.5 -31.5l104 -337q7 -21 4.5 -52.5t-11.5 -51.5l-28 -62q-17 -36 1 -64.5t59 -28.5h635q10 0 17.5 7t7.5 17t-7.5 17.5t-17.5 7.5h-635q-14 0 -18 6t2 18zM406.5 74q-22.5 0 -38 -16t-15.5 -38t15.5 -38t38 -16t38.5 16t16 38t-16 38
t-38.5 16zM772 74q-22 0 -38 -16t-16 -38t16 -38t38 -16t38 16t16 38t-16 38t-38 16z" />
    <glyph glyph-name="uniE65A" unicode="&#xe65a;" 
d="M512 -85q-20 0 -36 13l-272 228q-11 10 -12.5 25t8.5 26.5t24.5 12.5t26.5 -8l246 -208v760l-256 -216h-169v-328h64q15 0 25.5 -10.5t10.5 -25.5t-10.5 -25.5t-25.5 -10.5h-79q-24 0 -40.5 16.5t-16.5 40.5v358q0 24 16.5 40.5t40.5 16.5h157l262 220q27 23 60 8
q15 -7 24 -21t9 -31v-824q0 -17 -9 -31t-24 -21q-11 -5 -24 -5zM683 109q-17 0 -27 12q-10 11 -9.5 26t12.5 25q45 40 70 95.5t25 116.5q0 63 -26.5 120t-74.5 98q-12 9 -13 24t8.5 26.5t24.5 12.5t26 -8q61 -51 94 -122.5t33 -150.5q0 -76 -31.5 -145.5t-87.5 -120.5
q-11 -9 -24 -9zM794 8q-20 0 -31 18q-7 12 -3.5 26.5t16.5 22.5q81 49 128.5 131.5t47.5 177.5t-47.5 178.5t-129.5 131.5q-13 7 -17 21.5t3.5 27.5t22 17t27.5 -4q99 -58 156 -158t57 -214t-56.5 -213.5t-154.5 -157.5q-9 -5 -19 -5z" />
    <glyph glyph-name="uniE65B" unicode="&#xe65b;" 
d="M840 896q-76 0 -129.5 -53.5t-53.5 -129.5q0 -19 4 -39l-331 -181q-25 34 -63.5 53.5t-82.5 19.5q-76 0 -129.5 -53.5t-53.5 -129.5t53.5 -129.5t129.5 -53.5q59 0 107 34l141 -101q-17 -37 -17 -78q0 -76 53.5 -129.5t129.5 -53.5t129.5 53.5t53.5 129.5t-53.5 129.5
t-129.5 53.5q-71 0 -124 -48l-135 96q28 45 28 97q0 23 -6 46l328 181q25 -37 65 -58.5t86 -21.5q76 0 129.5 53.5t53.5 129.5t-53.5 129.5t-129.5 53.5zM184 270q-47 0 -80 33t-33 80t33 80t80 33t80 -33t33 -80t-33 -80t-80 -33zM598 168q47 0 80 -33t33 -80t-33 -80
t-80 -33t-80 33t-33 80t33 80t80 33zM840 600q-47 0 -80 33t-33 80t33 80t80 33t80 -33t33 -80t-33 -80t-80 -33z" />
    <glyph glyph-name="uniE65C" unicode="&#xe65c;" 
d="M351 644l7 -7h311l8 7q3 3 11 12t18 21t21 25t21.5 26t19 23t14.5 17l5 6q11 14 11.5 33.5t-8.5 30.5q-17 25 -47 25q-6 0 -23 -7q-30 -11 -38 -11q-7 1 -28 24q-12 13 -18 16q-20 11 -40 11q-19 0 -40 -14q-8 -5 -21 -22q-9 -11 -10 -12q-5 -3 -11.5 -3t-10.5 3
q-2 1 -10 12q-14 17 -21 22q-21 14 -41 14q-21 0 -39 -11q-7 -3 -19 -17q-20 -22 -27 -23q-8 0 -38 11q-17 7 -24 7q-30 0 -47 -25q-9 -11 -8.5 -30.5t11.5 -33.5q87 -107 111 -130zM279 810q1 1 4 2q2 -1 7 -3q38 -14 56 -14q28 0 64 39l8 8q7 4 13 4q4 0 12 -5
q2 -2 11 -13q13 -17 20 -21q18 -12 39.5 -12t39.5 12q7 4 21 21q9 11 10 12q8 6 12 6q6 0 14 -4q1 -1 7 -8q36 -39 65 -39q18 0 55 14q6 2 8 3q2 -1 3 -2q1 -3 0 -4q-53 -66 -100 -119h-269q-40 46 -99 119q-1 1 -1 4zM942 327q-15 54 -31 82q-20 37 -42 67q-24 32 -49 56
q-58 59 -130 98l-6 4h-341l-6 -3q-73 -39 -133 -99q-24 -24 -48 -56q-17 -19 -43 -67l-1 -2q-20 -43 -30 -80q-11 -40 -11 -96q0 -84 25 -149q25 -68 81 -115t139 -71q80 -24 196 -24q112 0 196 24q83 24 139 71t81 115q25 65 25 149q0 55 -11 96zM881 100q-21 -55 -67 -94
q-47 -41 -120 -62q-77 -22 -182 -22q-108 0 -182 22q-73 21 -120 62q-46 38 -67 94q-21 57 -21 131q0 48 9 83q9 32 26 72q24 42 38 58l1 1q21 30 43 51q53 53 116 87h316q63 -36 114 -87q22 -22 43 -51q20 -26 39 -60q13 -23 26 -71q9 -34 9 -83q0 -74 -21 -131zM686 426
l-46 36l-89 -119l20 -16h-104l21 15l-89 122l-49 -35l74 -102h-119v-57h185v-80h-185v-60h185v-92h57v92h184v60h-184v80h184v57h-118z" />
    <glyph glyph-name="uniE65D" unicode="&#xe65d;" 
d="M512 293q-118 0 -202 83.5t-84 202t84 202t202 83.5t202 -83.5t84 -202t-84 -202t-202 -83.5zM512 815q-98 0 -167.5 -69.5t-69.5 -167t69.5 -167t167.5 -69.5t167.5 69.5t69.5 167t-69.5 167t-167.5 69.5zM901 -96q-10 0 -17.5 7t-7.5 17q0 88 -38.5 164.5t-108.5 128.5
q-8 6 -9.5 16t4.5 18.5t16 9.5t18 -5q79 -58 123 -146t44 -186q0 -10 -7 -17t-17 -7zM123 -96q-10 0 -17 7t-7 17q0 113 55 208t150.5 150.5t207.5 55.5q10 0 17 -7.5t7 -17.5t-7 -17t-17 -7q-99 0 -183 -49t-132.5 -133t-48.5 -183q0 -10 -7.5 -17t-17.5 -7z" />
    <glyph glyph-name="uniE65E" unicode="&#xe65e;" 
d="M342 546h32v-77q0 -5 5 -5h15q5 0 5 5v77h33q5 0 5 5v14q0 5 -5 5h-90q-6 0 -6 -5v-14q0 -5 6 -5zM283 329l32 -49l56 117q4 1 8 3q8 5 17 0h1l74 -126l21 55l58 -7l-63 115q4 8 4 18t9 15q28 17 12 46q-5 9 0 17q17 30 -12 47q-9 5 -9 15q0 15 -9 24t-25 10q-10 0 -15 8
q-10 18 -28 18q-9 0 -18 -5t-17 0q-9 5 -18 5q-18 0 -28 -18q-5 -8 -15 -8q-16 -1 -25 -10t-9 -24q0 -10 -9 -15q-29 -17 -12 -46q5 -9 0 -18q-16 -29 12 -46q9 -5 9 -15q0 -4 1 -8l-61 -125zM311 343l-13 19l-22 -3l31 64q6 -2 11 -2q10 0 14 -8q4 -6 8 -10zM472 363
l-7 -18l-33 56q6 4 10 12q5 8 15 8q1 0 2 1h1l34 -62zM291 553q23 14 24 41v3q1 1 3 1q27 0 41 23l2 2v1q1 0 3 -1q23 -14 47 0q1 0 2 1h1q1 -1 2 -3q14 -23 41 -23q1 0 2 -1h1v-3q1 -27 24 -41q1 0 2 -1q0 -1 -1 -3q-13 -24 0 -48q1 -1 1 -2t-2 -2q-23 -14 -24 -41v-3
q-1 -1 -3 -1q-27 0 -41 -23q-1 -2 -2 -3q-1 0 -3 1q-24 13 -47 0q-1 0 -2 -1h-1q-1 1 -2 3q-14 23 -41 23h-2h-1v4q-1 27 -24 41q-1 0 -2 1q0 1 1 3q13 24 0 48q-1 1 -1 2t2 2zM753 535h-48q3 5 5 11q11 35 -12 63q-18 22 -48 22q-4 0 -7 -1q-34 -3 -58 -30q-18 -21 -28 -45
q-6 -11 -10 -19h-3h-7l-10 -1l-2 -4q-1 -2 -1 -3l-1 -1l-1 -3l2 -3q18 -32 -9 -55l-2 -1l-3 -37l31 -68v36h169v-195h-169v112l-28 3v-115h-168v112l-28 -58l-1 -61q0 -9 6.5 -15.5t14.5 -6.5h380q9 0 15 6.5t6 15.5v202h38v121q0 8 -6.5 13t-16.5 5zM579 535l4 8l3 6
q5 8 10 17q20 31 47 36q4 1 7 1q16 0 26 -12q14 -16 7 -38q-4 -10 -15 -18h-89zM747 506v-80h-206v80h206zM517 859q-95 0 -183 -36t-158 -103q-69 -68 -106.5 -154.5t-37.5 -181.5t37.5 -181.5t106.5 -154.5q70 -67 158 -103t183 -36q100 0 190 40q6 2 8.5 8t0 12t-8.5 8.5
t-12 -0.5q-85 -37 -178 -37q-90 0 -174 36t-145.5 95.5t-98 141.5t-36.5 171t36.5 171t98 141.5t145.5 95.5t174 36t172.5 -35t142 -94.5t94.5 -142t35 -172.5q0 -104 -45 -196q-7 -14 7 -21q5 -3 11 -0.5t9 7.5q49 99 49 210q0 96 -37.5 184t-101.5 152t-151.5 101.5
t-184.5 37.5z" />
    <glyph glyph-name="uniE65F" unicode="&#xe65f;" horiz-adv-x="1025" 
d="M489 131h-179v14h-61v-14h-178q-4 0 -7 3t-3 7v55q0 10 6.5 23.5t14.5 20.5q4 3 10.5 9.5t21 23.5t26 35t20.5 43.5t9 50t-9 50t-20.5 43.5t-26 35t-21 23.5t-10.5 9.5q-8 7 -14.5 20.5t-6.5 23.5v55q0 4 3 7t8 3h177v-14h61v14h597q4 0 7 -3t3 -7v-55q0 -9 -6 -19
t-12 -13l-21 -18q-9 -8 -9.5 -20.5t8 -22t21 -10.5t22.5 8l12 11q20 12 33 36t13 48v55q0 30 -21 51t-50 21h-836q-29 -1 -50 -21.5t-21 -50.5v-55q0 -24 12 -50t30 -41q21 -18 43.5 -50.5t22.5 -64t-22.5 -64.5t-43.5 -51q-18 -15 -30 -41t-12 -49v-55q0 -30 21 -51t50 -21
h418q13 0 22 9t9 22t-9 22t-22 9zM249 525h61v-57h-61v57zM249 240h61v-57h-61v57zM249 620h61v-57h-61v57zM249 335h61v-57h-61v57zM249 430h61v-57h-61v57zM1024 353q0 11 -8.5 18t-21.5 7h-38q2 7 3 13q8 46 -19 78q-23 27 -60 27q-43 0 -72 -37q-9 -12 -16 -27
q-8 2 -20 4q-20 2 -36 -5q-1 1 -1.5 2t-0.5 2q-32 53 -67 63q-25 7 -44 0q-17 -6 -28 -23q-12 -17 -12 -48l-1 -3q0 -2 1 -5q-28 8 -55 4q-16 -2 -28 -8.5t-17.5 -13t-9 -14t-4 -11t-0.5 -6.5q0 -8 6 -14t15 -6q6 0 10 2v-109h40v-179q0 -12 8.5 -21t19.5 -9h389
q11 0 19.5 9t8.5 21v179h39v110zM880 453q17 0 27 -12q14 -16 10 -42q-2 -12 -13 -21l-73 1q1 6 0 13q-1 6 -3 12q6 21 20 35t32 14zM625 424q1 20 6 28q6 10 24 5q19 -6 42 -44l6 -12q-2 -5 -3 -11t-1 -12q-18 0 -24 2q-14 6 -50 22q-5 2 -9 4q9 7 9 18zM531 378
q-5 0 -9 -1q6 3 13 4q6 1 12 1q11 0 23 -4h-39zM741 77h-158v166h158v-166zM741 287h-197v48h119l-86 41q2 -1 7 -3q3 -1 23 -10q40 -18 53.5 -23t37.5 -5h43v-48zM770 379h-13h-12h-3q0 3 1 6q0 1 1.5 3t6.5 3.5t12 1.5h5q20 -2 20 -6q0 -3 1 -7q-4 -1 -16 -1h-3zM942 77
h-158v166h158v-166zM980 287h-196v48h196v-48z" />
    <glyph glyph-name="uniE660" unicode="&#xe660;" 
d="M512 896q-104 0 -199 -40.5t-163.5 -109t-109 -163.5t-40.5 -199t40.5 -199t109 -163.5t163.5 -109t199 -40.5q100 0 192 37q12 5 17.5 17.5t0.5 24.5t-17.5 17t-24.5 1q-81 -33 -168 -33q-185 0 -316.5 131.5t-131.5 316.5t131.5 316.5t316.5 131.5t316.5 -131.5
t131.5 -316.5q0 -132 -71 -242q-7 -11 -4.5 -24t14 -20.5t24.5 -4.5t20 14q81 126 81 277q0 104 -40.5 199t-109 163.5t-163.5 109t-199 40.5zM416 30q2 -3 6 -3h100q5 0 7 6l174 630q1 3 -1 6t-6 3h-368q-4 0 -6 -2.5t-2 -5.5l10 -121q1 -7 7 -7h208l-130 -500q-1 -3 1 -6z
" />
    <glyph glyph-name="uniE661" unicode="&#xe661;" 
d="M512 896q-104 0 -199 -40.5t-163.5 -109t-109 -163.5t-40.5 -199t40.5 -199t109 -163.5t163.5 -109t199 -40.5q100 0 192 37q12 5 17.5 17.5t0.5 24.5t-17.5 17t-24.5 1q-80 -33 -168 -33q-185 0 -316.5 131.5t-131.5 316.5t131.5 316.5t316.5 131.5t316.5 -131.5
t131.5 -316.5q0 -132 -71 -242q-7 -11 -4.5 -24t14 -20.5t24.5 -4.5t20 14q81 126 81 277q0 104 -40.5 199t-109 163.5t-163.5 109t-199 40.5zM420 287h1v4q0 1 1 1v1v1q-1 0 -1 1v253q0 15 -1.5 24t-7.5 14t-16 6.5t-35 1.5h-98q-40 0 -50 -1.5t-15.5 -6.5t-7.5 -13.5
t-2 -22.5v-257q0 -15 11 -26t26 -11t26 11t11 26v1h-1v227q1 4 5 8q2 3 5 4t6 1h2h55q4 0 9 -4l5 -9v-234h1q3 -13 13 -22t23 -9t23 9t12 22zM271 302q0 -27 -19 -65q-11 -23 -43 -56q-13 -11 -14 -21q-2 -12 12 -18q16 -6 30 -6q10 1 24 14q29 29 46 63h1q3 -3 15.5 -19.5
t25 -31.5t15.5 -17q9 -3 27 7.5t18 17.5t-3 14q-5 9 -24 33.5t-23 28.5q-6 5 -16.5 7.5t-16.5 1.5q3 12 4 25q1 12 1 26v186v1q0 12 -8.5 19t-21.5 7t-21.5 -7t-8.5 -19v0v-191zM746 389h-236q-24 0 -32 -8.5t-8 -28.5v-169q0 -19 8.5 -28t32.5 -9h235q24 0 33 9t9 28v169
q0 20 -9 28.5t-33 8.5zM719 217q0 -5 -3 -8.5t-9 -3.5h-154q-14 0 -14 14v99q0 5 4 8t8 3h156q4 0 9 -3l3 -8v-101zM740 464q10 39 10 56v12h20h3q8 1 14.5 4.5t9.5 7.5t8 12t8 12q5 7 12.5 12.5t11.5 7t5 1.5t0.5 1.5t-1.5 1.5h-171q6 12 14 21.5t12 12t6 2.5q1 1 0 2
q-1 2 -2 2l-10 -1q-9 -1 -24 -3l-25 -2q-40 -4 -52 -34h-111q-13 0 -21.5 -9t-8.5 -21t8.5 -21t21.5 -9h33q1 -15 5 -30l5 -17q1 -5 5 -21h-74q-13 0 -21.5 -8.5t-8.5 -21t8.5 -21.5t21.5 -9h109h73h158h4q8 1 14 4.5t9 7.5t8 12q7 10 8 12q6 7 13 12.5t11 7t5 1.5t1 1.5
t-1 1.5h-124zM609 464h-12q-1 13 -3 27q-2 15 -9 41h2h73h13q-2 -8 -3 -11q-6 -20 -8 -31t-2 -26h-51z" />
    <glyph glyph-name="uniE662" unicode="&#xe662;" 
d="M512 -128q-104 0 -199 40.5t-163.5 109t-109 163.5t-40.5 199t40.5 199t109 163.5t163.5 109t199 40.5t199 -40.5t163.5 -109t109 -163.5t40.5 -199q0 -151 -81 -277q-7 -11 -20 -14t-24.5 4.5t-14 20.5t4.5 24q71 110 71 242q0 185 -131.5 316.5t-316.5 131.5
t-316.5 -131.5t-131.5 -316.5t131.5 -316.5t316.5 -131.5q88 0 168 33q12 4 24.5 -1t17.5 -17t-0.5 -24.5t-17.5 -17.5q-92 -37 -192 -37zM473 398zM816 186q-13 0 -22.5 9t-9.5 23v351h-400l-5 -34q-2 -17 -12 -35t-23 -30l-94 -85q-10 -9 -10 -22v-142q0 -13 -9.5 -22.5
t-22.5 -9.5t-22.5 9.5t-9.5 22.5v142q0 18 9 37.5t22 32.5l95 85q11 10 14 26l5 34q3 23 21.5 39t41.5 16h404q25 0 42.5 -17.5t17.5 -42.5v-355q0 -14 -9.5 -23t-22.5 -9zM359.5 135q-38.5 0 -65.5 27.5t-27 66t27 65.5t65.5 27t66 -27t27.5 -65.5t-27.5 -66t-66 -27.5z
M360 257q-12 0 -20.5 -8.5t-8.5 -20.5t8.5 -20.5t20.5 -8.5t20.5 8.5t8.5 20.5t-8.5 20.5t-20.5 8.5zM673.5 135q-38.5 0 -66 27.5t-27.5 66t27.5 65.5t66 27t65.5 -27t27 -65.5t-27 -66t-65.5 -27.5zM673 257q-12 0 -20.5 -8.5t-8.5 -20.5t8.5 -20.5t20.5 -8.5t20.5 8.5
t8.5 20.5t-8.5 20.5t-20.5 8.5zM612 196h-178q-14 0 -23 9.5t-9 22.5t9 22.5t23 9.5h178q13 0 22.5 -9.5t9.5 -22.5t-9.5 -22.5t-22.5 -9.5zM416 334h-93q-13 0 -22.5 9.5t-9.5 22.5t9.5 22.5t22.5 9.5h29v59q0 13 9 22.5t22.5 9.5t23 -9.5t9.5 -22.5v-123z" />
    <glyph glyph-name="uniE663" unicode="&#xe663;" 
d="M512 -128q-104 0 -199 40.5t-163.5 109t-109 163.5t-40.5 199t40.5 199t109 163.5t163.5 109t199 40.5t199 -40.5t163.5 -109t109 -163.5t40.5 -199q0 -151 -81 -277q-7 -11 -20 -14t-24.5 4.5t-14 20.5t4.5 24q71 110 71 242q0 185 -131.5 316.5t-316.5 131.5
t-316.5 -131.5t-131.5 -316.5t131.5 -316.5t316.5 -131.5q87 0 168 33q12 4 24.5 -1t17.5 -17t-0.5 -24.5t-17.5 -17.5q-92 -37 -192 -37zM540 396h-62q-11 0 -18.5 -7.5t-7.5 -18.5t7.5 -18.5t18.5 -7.5h62v-53q0 -11 8 -18.5t18.5 -7.5t18 7.5t7.5 18.5v53h57
q11 0 18.5 7.5t7.5 18.5t-7.5 18.5t-18.5 7.5h-57v21h9h1h1h1h1h44q11 0 18.5 7.5t7.5 18.5t-7.5 18.5t-18.5 7.5h-20v24q0 11 -7.5 18.5t-18.5 7.5t-18.5 -7.5t-7.5 -18.5v-24h-27v24q0 11 -8 18.5t-18.5 7.5t-18 -7.5t-7.5 -18.5v-24h-20q-11 0 -18.5 -7.5t-7.5 -18.5
t7.5 -18.5t18.5 -7.5h44h2h1h15v-21zM788 601h-404q-23 0 -41.5 -16t-21.5 -39l-5 -34q-2 -16 -14 -26l-95 -85q-13 -13 -22 -32.5t-9 -37.5v-142q0 -13 9.5 -22.5t22.5 -9.5t22.5 9.5t9.5 22.5v142q0 13 10 22l94 85q30 26 35 65l5 34h400v-351q0 -14 9.5 -23t22.5 -9
t22.5 9t9.5 23v355q0 25 -17.5 42.5t-42.5 17.5zM673 289q-29 0 -53 -17t-34 -44h-139q-10 27 -34 44t-53 17q-39 0 -66 -27t-27 -65.5t27 -66t66 -27.5q30 0 53.5 17t33.5 44h139q10 -27 34 -44t53 -17q39 0 66 27.5t27 66t-27 65.5t-66 27zM360 167q-12 0 -20.5 8.5
t-8.5 20.5t8.5 20.5t20.5 8.5t20.5 -8.5t8.5 -20.5t-8.5 -20.5t-20.5 -8.5zM673 167q-12 0 -20.5 8.5t-8.5 20.5t8.5 20.5t20.5 8.5t20.5 -8.5t8.5 -20.5t-8.5 -20.5t-20.5 -8.5zM323 302h93v123q0 13 -9.5 22.5t-23 9.5t-22.5 -9.5t-9 -22.5v-59h-29q-13 0 -22.5 -9.5
t-9.5 -22.5t9.5 -22.5t22.5 -9.5z" />
    <glyph glyph-name="uniE664" unicode="&#xe664;" 
d="M512 896q-104 0 -199 -40.5t-163.5 -109t-109 -163.5t-40.5 -199t40.5 -199t109 -163.5t163.5 -109t199 -40.5q100 0 192 37q12 5 17.5 17.5t0.5 24.5t-17.5 17.5t-24.5 0.5q-80 -33 -168 -33q-185 0 -316.5 131.5t-131.5 316.5t131.5 316.5t316.5 131.5t316.5 -131.5
t131.5 -316.5q0 -132 -71 -242q-7 -11 -4.5 -24t14 -20.5t24.5 -4.5t20 14q81 126 81 277q0 104 -40.5 199t-109 163.5t-163.5 109t-199 40.5zM685 209q-3 2 -12 9t-13 9q-21 14 -28 12q-10 -1 -19 -18q-15 -30 -3 -46l9 -7q34 -18 97 -80q10 -10 18 -10q10 3 19 18
q7 13 8 20q2 19 -7 31q-5 6 -30.5 29t-38.5 33zM260 160q-17 -18 -16 -32q2 -12 16.5 -21t34.5 -1q10 3 30 16.5t35 25.5l16 12q16 13 34 31v1q4 22 -4.5 36t-23.5 15q-7 1 -14 -1t-11 -5l-4 -2q-9 -9 -20.5 -18t-27.5 -20.5t-22 -16.5v0q-1 0 -11.5 -9.5t-11.5 -10.5z
M418 662h-26h-134q-13 0 -21.5 -9t-8.5 -21.5t9 -21.5t21 -9h112h34v-30h-100q-24 0 -32 -8.5t-8 -28.5v-86q0 -19 8.5 -28t32.5 -9h413q24 0 33 9t9 28v86q0 20 -9 28.5t-33 8.5h-99v30h29h111h3q12 1 18.5 6.5t13.5 17.5q6 9 9 12q5 8 12.5 13.5t11.5 7t5 1.5t1 2
q0 1 -2 1h-413zM404 471h-56q-14 0 -14 14v14q0 5 4 8q4 4 8 4h58v-40zM546 471h-69v40h69v-40zM546 571h-69v30h69v-30zM679 511q4 0 8 -4l4 -8v-16q0 -5 -3.5 -8.5t-8.5 -3.5h-60v40h60zM716 338q2 0 3 1q12 0 18 5.5t14 17.5q6 10 8 13q6 7 13.5 12.5t11.5 6.5l4 2
q2 1 1 2q0 1 -1 1h-477q-13 0 -22 -9t-9 -21.5t9 -21.5t22 -9h405zM255 317q-12 0 -21 -9t-9 -21.5t9 -21.5t21 -9h222v-116q0 -8 -3 -13q-7 -7 -14 -7h-14q-10 0 -17 -4q-8 -4 -14 -16q-3 -10 0 -17t8 -10q5 -2 13 -2h2h10h2h31q47 0 53 3q17 12 17 31v36v115h196q2 0 3 1
q12 0 18.5 5.5t13.5 17.5q6 10 9 13q5 7 12.5 12.5t11.5 7t5 1.5t1 2q0 1 -2 1h-564z" />
    <glyph glyph-name="uniE665" unicode="&#xe665;" 
d="M512 896q-104 0 -199 -40.5t-163.5 -109t-109 -163.5t-40.5 -199t40.5 -199t109 -163.5t163.5 -109t199 -40.5q100 0 192 37q12 5 17.5 17.5t0.5 24.5t-17.5 17t-24.5 1q-81 -33 -168 -33q-185 0 -316.5 131.5t-131.5 316.5t131.5 316.5t316.5 131.5t316.5 -131.5
t131.5 -316.5q0 -132 -71 -242q-7 -11 -4.5 -24t14 -20.5t24.5 -4.5t20 14q81 126 81 277q0 104 -40.5 199t-109 163.5t-163.5 109t-199 40.5zM581 224h-1v73v52h76h2h2q10 1 18 5.5t12 9.5t11 16q6 10 10 15q16 21 37 28h1q1 1 1 2.5t-2 1.5h-168v97v1q1 1 1 2h99h5
q12 1 21 6.5t13.5 11t12.5 17.5q8 13 12 18q9 12 20 20t16.5 10t7.5 2q1 1 1 3t-2 2h-209h-110h-170q-19 0 -32 -13.5t-13 -32t13 -31.5t32 -13h137h34l1 -230v-64q0 -4 1 -9h-85v17l-1 186v1q0 21 -15 36t-36.5 15t-36.5 -15t-15 -37v0v0v-122v-81h-11q-18 0 -31.5 -13
t-13.5 -31.5t13.5 -32t31.5 -13.5h167h110h184h5q12 1 21.5 6.5t14 11t11.5 17.5q9 14 13 19q8 11 19 19t17 10.5t7 2.5q2 0 2 2q-1 2 -2 2h-259z" />
    <glyph glyph-name="uniE666" unicode="&#xe666;" 
d="M101 11q-14 0 -23 9q-16 15 -7 35l131 313q2 6 7 10l506 509q10 9 23 9t23 -9l182 -183q10 -9 10 -22.5t-10 -23.5l-461 -461q-10 -10 -23 -10t-23 10l-103 103q-9 9 -9 22.5t9.5 23t22.5 9.5t23 -10l80 -80l416 416l-137 137l-479 -481l-97 -232l202 89q12 5 24.5 0.5
t18 -17t0.5 -25t-17 -17.5l-276 -122q-7 -2 -13 -2zM934 -128h-844q-13 0 -22.5 9.5t-9.5 23t9.5 23t22.5 9.5h844q13 0 22.5 -9.5t9.5 -23t-9.5 -23t-22.5 -9.5z" />
    <glyph glyph-name="uniE667" unicode="&#xe667;" 
d="M849 772h-110q-11 0 -11 13q0 33 -23 56t-56 23h-274q-33 0 -56 -23.5t-23 -57.5q0 -5 -3.5 -8t-7.5 -3h-110q-33 0 -56 -23.5t-23 -55.5v-63q0 -25 14 -45t37 -29v-573q0 -33 23 -56t56 -23h572q33 0 56 23t23 56v573q23 9 37 29t14 45v63q0 32 -23 55.5t-56 23.5z
M164 693q0 4 3 7.5t8 3.5h110q33 0 56 23.5t23 57.5q0 5 3.5 8t7.5 3h274q11 0 11 -13q0 -33 23.5 -56t55.5 -23h110q5 0 8 -3.5t3 -7.5v-63q0 -5 -3 -8t-8 -3h-674q-5 0 -8 3t-3 8v63zM798 -28h-572q-5 0 -8.5 3t-3.5 8v568h596v-568q0 -5 -3.5 -8t-8.5 -3zM345 461h68
v-414h-68v414zM611 461h68v-414h-68v414z" />
    <glyph glyph-name="uniE668" unicode="&#xe668;" horiz-adv-x="1133" 
d="M603 38q-67 0 -123 11t-94 36.5t-38 61.5q0 41 50.5 68.5t118.5 34.5l4 1l-112 176q-6 9 -10 20l-3 5l-1 3q-15 37 -15 77q0 90 65.5 153.5t157.5 63.5t157 -63.5t65 -153.5q0 -40 -15 -77l-1 -4l-1 -2q-5 -11 -11 -22l-194 -314l-46 73h-2q-51 -4 -87 -15.5t-48 -21.5
l-2 -2l2 -2q15 -14 63 -26.5t115 -12.5h9q67 0 115 12.5t63 26.5l3 2l-3 2q-23 20 -93 32l39 61q61 -13 94 -38t33 -57q0 -36 -38 -61.5t-94.5 -36.5t-122.5 -11zM603 649q-39 0 -67 -27t-28 -65t28 -65t67 -27t67 27t28 65t-28 65t-67 27z" />
    <glyph glyph-name="uniE669" unicode="&#xe669;" 
d="M921 300q0 111 -54.5 205.5t-149 149t-205.5 54.5t-205.5 -54.5t-149 -149t-54.5 -205.5t54.5 -205.5t149 -149t205.5 -54.5q136 0 246 83q5 6 5 12q0 8 -5 13t-13 5t-13 -5q-99 -73 -220 -73q-100 0 -185.5 50t-135 135t-49.5 186t49.5 186.5t135 135t186 49.5
t186 -49.5t135 -135t49.5 -186.5q0 -93 -42 -173q-1 -4 -1 -6q0 -7 5.5 -12.5t12.5 -5.5q13 0 17 12q46 90 46 188zM498 91zM465 91q0 13 9.5 22.5t23 9.5t23 -9.5t9.5 -22.5t-9.5 -22.5t-23 -9.5t-23 9.5t-9.5 22.5zM576 295q21 11 32 18t27 20.5t23.5 32.5t7.5 44
q0 58 -45.5 95t-117.5 37q-53 0 -95.5 -27.5t-58.5 -72.5q-11 -30 -5 -56q2 -9 9.5 -13.5t16 -2.5t13.5 9.5t3 16.5q-3 14 3 31q11 30 41 51t73 21q53 0 86.5 -25t33.5 -64q0 -28 -15 -43t-52 -33q-18 -10 -28 -16t-24.5 -18t-21 -27.5t-6.5 -35.5v-53q0 -9 6 -15.5t15 -6.5
t15.5 6.5t6.5 15.5v53q0 19 12.5 30.5t44.5 27.5z" />
    <glyph glyph-name="uniE66A" unicode="&#xe66a;" 
d="M510 748q-91 0 -174 -35t-143 -95t-95 -143t-35 -174t35 -173.5t95 -142.5t143 -95.5t174 -35.5t173.5 35.5t142.5 95.5t95.5 142.5t35.5 173.5t-35.5 174t-95.5 143t-142.5 95t-173.5 35zM761 97l-47 -47l-204 204l-204 -204l-48 47l204 204l-204 204l48 48l204 -204
l204 204l47 -48l-204 -204z" />
    <glyph glyph-name="uniE66B" unicode="&#xe66b;" 
d="M594 609q-128 35 -242 -31q-56 -32 -94.5 -82t-54.5 -112q-22 -84 0 -166t82 -142.5t144 -82.5q41 -11 82 -11q89 0 166 47q14 8 6 22q-4 6 -10.5 7.5t-11.5 -2.5q-106 -64 -224 -32q-75 20 -129 74.5t-74 128t0 149.5q31 114 134 173.5t217.5 29t174 -133.5t29.5 -218
q-11 -40 -33 -75q-3 -6 -1.5 -12.5t7.5 -9.5q13 -9 22 5q24 40 35 84q23 83 0.5 165t-82.5 142.5t-143 82.5zM511.5 509q-6.5 0 -11.5 -5t-5 -11v-192q0 -6 5 -11t11 -5h160q6 0 11 5t5 11.5t-5 11t-11 4.5h-144v176q0 6 -4.5 11t-11 5z" />
    <glyph glyph-name="uniE66C" unicode="&#xe66c;" 
d="M792 864h-560q-45 0 -77 -32t-32 -77v-821q0 -13 9 -21.5t21 -8.5q14 0 23 11l1 1h1l97 99l97 -98q8 -9 21 -9q12 1 21 9l96 98l97 -97q9 -9 21 -9h1q12 0 21 9l96 98l97 -97q0 -1 5 -3q9 -12 23 -12q13 0 21.5 8.5t8.5 21.5v821q0 45 -32 77t-77 32zM746 88
q-13 0 -21 -9l-97 -98l-97 98q-9 9 -21 8q-12 0 -21 -8l-96 -98l-97 97q-9 9 -21 9q-12 1 -22 -9l-70 -72v749q0 20 14.5 34.5t34.5 14.5h560q20 0 34.5 -14.5t14.5 -34.5v-750l-74 74q-9 9 -21 9zM734 637h-437q-12 0 -20.5 -9t-8.5 -21t8.5 -21t20.5 -9h437q12 0 21 9
t9 21t-9 21t-21 9zM734 466h-437q-12 0 -20.5 -9t-8.5 -21t8.5 -21t20.5 -9h437q12 0 21 9t9 21t-9 21t-21 9zM615 295h-318q-12 0 -20.5 -9t-8.5 -21.5t8.5 -21t20.5 -8.5h318q12 0 21 8.5t9 21t-9 21.5t-21 9z" />
    <glyph glyph-name="uniE66D" unicode="&#xe66d;" 
d="M704 639h-388q-34 0 -45.5 -14.5t-11.5 -46.5v-387q0 -32 12.5 -47t46.5 -15h386q34 0 47.5 15t13.5 47v387q0 32 -13.5 46.5t-47.5 14.5zM703 214q0 -11 -4 -17t-12 -6h-346q-20 0 -20 23v346q0 10 3.5 13.5t11.5 3.5h345q12 0 16.5 -4.5t4.5 -11.5v-347h1zM648 498h-41
v24q0 35 -33 35q-14 0 -23.5 -8t-9.5 -24v-27h-165q-18 0 -25.5 -8t-7.5 -25q0 -30 33 -30h122q-36 -43 -71 -71q-34 -29 -66 -44q-49 -23 -20 -52q14 -10 37.5 -5.5t41.5 15.5q23 14 53 40q36 31 68 75v-104v-5q-1 -8 -3 -11q-4 -6 -11 -6h-26q-13 0 -24 -5q-12 -5 -18 -19
q-8 -24 11 -34q6 -3 17 -4h3h4h5h4h3h41q33 0 47 15q6 6 9 19t4 22v10q1 7 0 14v150h41q16 0 26 6t10 24q0 20 -9 26.5t-27 6.5zM512 864q-130 0 -240.5 -64.5t-175 -175t-64.5 -240.5t64.5 -240.5t175 -175t240.5 -64.5q94 0 180 35q11 4 16 15.5t0.5 22.5t-16 16t-22.5 0
q-76 -30 -158 -30q-114 0 -211 56.5t-153.5 153.5t-56.5 211t56.5 211t153.5 153.5t211 56.5t211 -56.5t153.5 -153.5t56.5 -211q0 -124 -67 -228q-6 -10 -3.5 -22t12.5 -18.5t22 -4t19 12.5q76 119 76 260q0 198 -141 339t-339 141z" />
    <glyph glyph-name="uniE66E" unicode="&#xe66e;" 
d="M725 447q10 0 17.5 7t7.5 17.5t-7.5 18t-17.5 7.5h-52v69q0 10 -7 17.5t-17.5 7.5t-18 -7.5t-7.5 -17.5v-69h-100v69q0 10 -7 17.5t-17.5 7.5t-18 -7.5t-7.5 -17.5v-69h-51q-11 0 -18 -7.5t-7 -18t7 -17.5t18 -7h132v-88h-132q-11 0 -18 -7.5t-7 -18t7 -17.5t18 -7h132
v-115q0 -10 7.5 -17.5t17.5 -7.5t17.5 7.5t7.5 17.5v115h121q10 0 17.5 7t7.5 17.5t-7.5 18t-17.5 7.5h-121v88h121zM958 507q14 12 24 33.5t10 40.5v69q0 24 -17 41t-41 17h-844q-24 0 -41 -17t-17 -41v-69q0 -20 10 -41t24 -33q24 -20 48.5 -55t24.5 -68t-24.5 -68
t-48.5 -55q-14 -12 -24 -33.5t-10 -40.5v-69q0 -24 17 -41t41 -17h844q24 0 41 17t17 41v69q0 19 -10 40.5t-24 33.5q-24 20 -48.5 55t-24.5 68t24.5 68t48.5 55zM942 581q0 -8 -5 -19.5t-12 -16.5q-5 -4 -11 -10t-21.5 -24t-27 -35.5t-21 -43t-9.5 -48.5t9.5 -48.5t21 -43
t27 -35.5t21.5 -24t11 -10q7 -5 12 -16.5t5 -19.5v-69q0 -8 -8 -8h-605v14h-50v-14h-189q-8 0 -8 8v69q0 8 5 19.5t12 16.5q5 4 11 10t21.5 24t27 35.5t21 43t9.5 48.5t-9.5 48.5t-21 43.5t-26.5 35.5t-22 23.5t-11 10q-7 5 -12 16.5t-5 19.5v69q0 8 8 8h189v-14h50v14h605
q8 0 8 -8v-69zM279 287h50v-49h-50v49zM279 205h50v-48h-50v48zM279 368h50v-49h-50v49zM279 449h50v-49h-50v49zM279 611h50v-48h-50v48zM279 530h50v-49h-50v49z" />
    <glyph glyph-name="uniE66F" unicode="&#xe66f;" 
d="M507.5 663q-13.5 0 -23.5 -9.5t-10 -23.5v-353q0 -14 10 -23.5t23.5 -9.5t23 9.5t9.5 23.5v353q0 14 -9.5 23.5t-23 9.5zM507.5 172q-13.5 0 -23.5 -9.5t-10 -23.5v-82q0 -14 10 -23.5t23.5 -9.5t23 9.5t9.5 23.5v82q0 14 -9.5 23.5t-23 9.5zM963 176l-315 562
q-54 96 -136.5 96t-136.5 -97l-314 -561q-54 -96 -11 -169t152 -73h1l619 1q109 0 152 72.5t-11 168.5zM916.5 41q-23.5 -40 -94.5 -40l-619 -1l-1 -33v33q-71 0 -94.5 40.5t11.5 102.5l314 562q35 62 78.5 62t78.5 -62l315 -561q35 -63 11.5 -103z" />
    <glyph glyph-name="uniE670" unicode="&#xe670;" 
d="M755 585l-322 -344l-163 180q-11 12 -27.5 12.5t-28.5 -10.5t-13 -27t10 -28l222 -243l379 407q11 12 10.5 28t-12.5 27t-28 10.5t-27 -12.5zM512 864q-130 0 -240.5 -64.5t-175 -175t-64.5 -240.5t64.5 -240.5t175 -175t240.5 -64.5q94 0 180 35q15 6 21.5 21t0.5 30
t-21 21.5t-31 0.5q-72 -29 -150 -29q-109 0 -201.5 53.5t-146 146t-53.5 201.5t53.5 201.5t146 146t201.5 53.5t201.5 -53.5t146 -146t53.5 -201.5q0 -118 -64 -217q-8 -14 -4.5 -30t17 -24.5t29.5 -5t25 16.5q76 119 76 260q0 130 -64.5 240.5t-175 175t-240.5 64.5z" />
    <glyph glyph-name="uniE671" unicode="&#xe671;" 
d="M957.5 399q-14.5 0 -25 -10t-10.5 -25q0 -89 -63 -152.5t-153 -63.5h-469l70 67q11 10 11 24.5t-10 25t-24 10.5t-25 -10l-131 -125q-11 -10 -11 -25t11 -25l131 -130q10 -10 24 -10q15 0 25 10t10 24.5t-10 24.5l-70 69h468q118 0 202 84t84 202q0 15 -10 25t-24.5 10z
M318 619h457l-69 -66q-10 -10 -10.5 -24.5t9.5 -24.5q11 -11 25 -11t24 10l132 125q10 11 10 25.5t-10 24.5l-131 130q-10 11 -24.5 10.5t-24.5 -10.5t-10 -24.5t10 -24.5l71 -71h-459q-118 0 -202 -83.5t-84 -202.5q0 -14 10 -24t24.5 -10t25 10t10.5 24q-1 90 62.5 153.5
t153.5 63.5z" />
    <glyph glyph-name="uniE672" unicode="&#xe672;" 
d="M512 864q-130 0 -240.5 -64.5t-175 -175t-64.5 -240.5t64.5 -240.5t175 -175t240.5 -64.5q94 0 180 35q15 6 21.5 21t0.5 30t-21 21.5t-30 0.5q-73 -29 -151 -29q-109 0 -201.5 53.5t-146 146t-53.5 201.5t53.5 201.5t146 146t201.5 53.5t201.5 -53.5t146 -146
t53.5 -201.5q0 -118 -63 -217q-9 -14 -5.5 -30t17 -24.5t29.5 -5t25 16.5q76 119 76 260q0 130 -64.5 240.5t-175 175t-240.5 64.5zM756 423h-205v275q0 22 -15.5 37.5t-37 15.5t-37 -15.5t-15.5 -37.5v-380h310q22 0 37.5 15.5t15.5 37t-15.5 37t-37.5 15.5z" />
    <glyph glyph-name="uniE673" unicode="&#xe673;" 
d="M516 -50q-15 0 -28 9q-22 15 -50 35.5t-87.5 68t-108.5 92.5t-98 101.5t-71 102.5q-10 15 -19.5 40t-16.5 67t-4 85t25 94t64 94q7 7 19 16.5t36.5 25.5t58.5 26.5t69 10.5q115 0 204 -116q88 113 209 113q63 0 127 -34q6 -3 15.5 -9t31 -24t39.5 -39t34.5 -54.5
t20.5 -69.5q6 -41 6.5 -73.5t-9 -77t-31.5 -88.5q-12 -22 -47 -66t-61 -69q-69 -65 -164 -145.5t-136 -107.5q-13 -8 -28 -8zM126 393l1 -1l2 -4q26 -54 101 -131t147 -135t140 -106q42 30 131.5 105.5t151.5 135.5q24 22 55.5 62t39.5 56q26 51 32 102t-3 99
q-4 28 -16.5 53.5t-27 41.5t-30.5 29.5t-23.5 18.5t-10.5 6q-51 27 -98 27q-33 0 -63.5 -12t-53 -32.5t-38 -39t-27.5 -38.5l-27 -43l-27 43q-78 124 -177 124q-22 0 -44 -6t-37 -13.5t-30 -18t-19.5 -14.5t-7.5 -7q-36 -37 -53.5 -80t-19 -76.5t5.5 -68t13.5 -50
t12.5 -27.5z" />
    <glyph glyph-name="uniE674" unicode="&#xe674;" 
d="M237 614h56v-133q0 -9 9 -9h27q9 0 9 9v133h56q9 0 9 9v25q0 9 -9 9h-157q-9 0 -9 -9v-25q0 -9 9 -9zM135 237l56 -85l98 203q7 2 13 6q15 8 30 0l1 -1l128 -218l37 95l101 -13l-110 201q8 14 8 31t15 26q23 14 29 35.5t-7 45.5q-9 14 0 29q13 24 7 45.5t-29 35.5
q-15 9 -15 26q0 27 -16 42.5t-43 16.5q-17 0 -26 15q-18 30 -49 30q-15 0 -31 -9q-15 -8 -30 0q-16 9 -32 9q-30 0 -49 -30q-8 -15 -25 -15q-27 -1 -43 -16.5t-16 -42.5q-1 -17 -15 -26q-23 -14 -29 -35.5t7 -45.5q8 -14 0 -29q-13 -24 -7 -45.5t29 -35.5q14 -9 14 -26
l2 -14l-106 -217zM183 261l-21 33l-39 -5l54 111q10 -3 18 -3q18 0 26 -15q6 -10 13 -16zM463 296l-12 -31l-57 97q11 7 18 20q9 15 26 15q1 0 3 1h2l58 -107zM149 627q41 24 41 71v4l1 1q2 1 5 1q47 1 71 41q2 2 3 4q2 0 6 -2q20 -11 41 -11t41 11q1 1 3 2q2 0 2 1
q1 -2 3 -5q24 -40 71 -41h5q1 -1 1 0v-6q1 -47 41 -71q2 -1 4 -3h1q-1 -2 -2 -6q-23 -41 0 -82q1 -1 2 -4q-2 -2 -5 -4q-40 -24 -41 -71v-4v-1q-2 -1 -6 -1q-47 -1 -71 -41q-1 -3 -3 -4q-2 0 -5 2q-41 23 -82 0l-4 -2l-1 -1q-2 2 -4 5q-24 40 -71 41h-4h-1q-1 2 -1 6
q0 47 -41 71q-1 1 -3 2l-1 1q0 2 2 5q23 42 0 83q-1 1 -2 3v1q1 2 4 4zM952 594h-83q5 9 9 21q8 27 2.5 57.5t-24.5 51.5q-30 37 -83 37h-12q-34 -4 -56 -16.5t-44 -36.5q-32 -36 -50 -77q-10 -20 -17 -35h-6h-11h-18l-4 -8l-1 -4q-2 -2 -2 -3l-2 -5l4 -5q14 -26 10 -51.5
t-26 -43.5l-3 -3l-4 -65l53 -118v64h293v-340h-293v194l-49 7v-201h-293v194l-48 -100l-1 -106q0 -15 10.5 -26t26.5 -11h659q16 0 26.5 11t10.5 26v352h66v209q0 14 -11.5 22.5t-28.5 8.5zM650 595q4 8 7 13l5 11q8 15 17 30q35 54 82 63q6 1 13 1q27 0 45 -20
q24 -29 11 -67q-4 -11 -8.5 -16.5t-16.5 -14.5h-155zM941 545v-140h-357v140h357z" />
    <glyph glyph-name="uniE675" unicode="&#xe675;" 
d="M992 492l-332 48l-148 301l-148 -301l-332 -48l240 -234l-57 -331l297 156l297 -156l-57 331z" />
    <glyph glyph-name="uniE676" unicode="&#xe676;" 
d="M855 784h-74v56q0 15 -11 26t-26.5 11t-26.5 -11t-11 -26v-56h-396v44q0 16 -10.5 26.5t-26 10.5t-26.5 -10.5t-11 -26.5v-44h-67q-57 0 -97 -40t-40 -97v-620q0 -56 40 -96t97 -40h686q57 0 97 40t40 96v620q0 57 -40 97t-97 40zM169 709h67v-30q0 -15 11 -26t26.5 -11
t26 11t10.5 26v30h396v-18q0 -15 11 -26t26.5 -11t26.5 11t11 26v18h74q26 0 44.5 -18t18.5 -44v-70h-811v70q0 26 18 44t44 18zM855 -35h-686q-26 0 -44 18.5t-18 43.5v475h810v-475q0 -25 -18 -43.5t-44 -18.5zM780 391h-522q-16 0 -27 -11t-11 -26.5t11 -26t27 -10.5h522
q15 0 26 10.5t11 26t-11 26.5t-26 11zM667 198h-409q-16 0 -27 -11t-11 -26t11 -26t27 -11h409q16 0 27 11t11 26t-11 26t-27 11z" />
    <glyph glyph-name="uniE677" unicode="&#xe677;" 
d="M512 864q-114 0 -194 -80.5t-80 -193.5q0 -31 9 -69l265 -548l264 548q10 38 10 69q0 113 -80 193.5t-194 80.5zM512 453q-57 0 -97 40t-40 97t40 97t97 40t97 -40t40 -97t-40 -97t-97 -40zM512 -96q-78 0 -147 14t-115.5 43t-46.5 68q0 38 44 67.5t124 45.5l8 -39
q-66 -13 -101.5 -34t-35.5 -40q0 -14 19 -28.5t52.5 -27.5t86 -21.5t112.5 -8.5t112.5 8.5t86 21.5t52.5 28t19 28q0 19 -35.5 40t-101.5 34l8 39q80 -16 124.5 -45.5t44.5 -67.5q0 -39 -47 -68t-116 -43t-147 -14z" />
    <glyph glyph-name="uniE678" unicode="&#xe678;" 
d="M870 724h-307l51 -52h256q11 0 18.5 7.5t7.5 18.5t-7.5 18.5t-18.5 7.5zM154 672h256l51 52h-307q-11 0 -18.5 -7.5t-7.5 -18.5t7.5 -18.5t18.5 -7.5zM154 514h102l51 51h-153q-11 0 -18.5 -7.5t-7.5 -18t7.5 -18t18.5 -7.5zM870 565h-153l51 -51h102q11 0 18.5 7.5
t7.5 18t-7.5 18t-18.5 7.5zM198 407h-44q-11 0 -18.5 -7.5t-7.5 -18t7.5 -18t18.5 -7.5h122v18h-4q-4 0 -11 0.5t-15.5 1.5t-17 3.5t-15 5.5t-11 9t-4.5 13zM870 407h-42q0 -15 -20 -22.5t-40 -7.5l-20 -1v-20h122q11 0 18.5 7.5t7.5 18t-7.5 18t-18.5 7.5zM128 222.5
q0 -10.5 7.5 -18t18.5 -7.5h122v51h-122q-11 0 -18.5 -7.5t-7.5 -18zM870 248h-122v-51h122q11 0 18.5 7.5t7.5 18t-7.5 18t-18.5 7.5zM922 896h-820q-42 0 -72 -30t-30 -72v-820v-102q19 0 51 1v51v50v59v761q0 21 15 36t36 15h820q21 0 36 -15t15 -36v-686v-88
q-256 48 -469 -27q-75 -26 -198 -45v-52q139 21 214 49q62 22 137 31.5t137.5 7t116 -9.5t83.5 -13t30 -7v154v686q0 42 -30 72t-72 30zM793 459l-225 241q-23 24 -56 24t-56 -24l-225 -241q-25 -26 -15.5 -48t45.5 -22h29v-195q0 -30 20.5 -50.5t49.5 -20.5h152h152
q29 0 50 20.5t21 50.5v195h28q36 0 45.5 22t-15.5 48zM681 443v-249q0 -7 -5 -12t-12 -5h-152h-152q-7 0 -12 5t-5 12v249h-54l207 220q6 7 16 7t16 -7l207 -220h-54zM369 444v-233h143h143v233h-143h-143zM484 265h-61v35h61v-35zM484 354h-61v36h61v-36zM537 390h64v-36
h-64v36zM537 300h64v-35h-64v35z" />
    <glyph glyph-name="uniE679" unicode="&#xe679;" 
d="M1 427h159v-42h-159v42zM863 427h160v-42h-160v42zM0 896v-384h43v341h938v-339h43v382h-1024zM981 -84h-938v375h-43v-418h1024v418h-43v-375zM480 320h127v-126q0 -15 -5.5 -21.5t-19.5 -6.5q-23 0 -46 2q1 -6 5.5 -19.5t5.5 -20.5h27h25q27 1 39.5 15.5t12.5 42.5v134
h84v234h-111l18 42h137v43h-407v-209q0 -105 -13.5 -161t-49.5 -112q34 -25 38 -29q40 69 54.5 131.5t14.5 170.5v166h178l-17 -42h-97v-234zM523 415h168v-52h-168v52zM523 511h168v-54h-168v54zM274 128q25 114 46 200q-27 8 -51 18q-21 -104 -48 -201zM765 162l38 29
q-40 50 -84 100l-36 -26q35 -41 82 -103zM470 153q46 54 85 109l-41 28q-34 -54 -80 -103q7 -6 36 -34zM309 524l41 41q-39 37 -80 73l-39 -37q33 -31 78 -77zM298 390l41 42q-41 37 -82 71l-38 -39q45 -40 79 -74z" />
    <glyph glyph-name="uniE67A" unicode="&#xe67a;" 
d="M512 -96q-125 0 -227.5 72.5t-144.5 191.5q-12 35 -18 73q-5 32 -5 58q0 49 13 99q15 55 44 103q7 10 13 22q14 23 24 49q19 51 20 105v4q1 15 -1 32q-2 20 17 29t33 -7l2 -2q9 -9 13 -14q36 -43 58 -95q24 -59 28 -123q24 22 44 50q5 7 12 18q29 48 40 101q6 31 6 63
q0 16 -2 34q-2 23 -10 49l-1 5q-1 4 -1 5q-6 20 10 32.5t33 0.5q6 -4 17 -12l1 -1q23 -17 40 -34q53 -53 81 -123q7 -18 13 -39q14 -50 14 -100q0 -63 -20 -121q44 51 52 117v9q0 1 1 3q1 15 5 30q18 73 72 125q8 7 17 15q17 13 34.5 1.5t11.5 -32.5q-2 -7 -4 -15
q-9 -39 -9 -77q0 -65 24 -126q7 -15 15 -31q1 -1 1 -2q24 -61 28 -128v-6v-13q0 -66 -21 -129q-38 -108 -127 -180q-108 -86 -246 -86zM286 630q-6 -40 -21 -79q-11 -30 -28 -58q-8 -13 -15 -24q-23 -39 -35 -86q-12 -43 -12 -84q0 -23 5 -50q4 -32 15 -62
q35 -101 122.5 -163t194.5 -62q118 0 210 74q76 61 108 153q19 54 19 110q0 2 -1 9v8q-3 56 -23 107q-9 17 -16 35q-28 68 -29 140q-4 -11 -7 -24q-3 -12 -5 -23q0 -6 -1 -12q-9 -79 -58 -141t-125 -89q-20 -7 -33 10.5t1 35.5q68 86 68 195q0 42 -12 84q-5 18 -11 33
q-21 51 -57 92q1 -13 1 -26q0 -38 -8 -75q-12 -63 -47 -119q-7 -12 -14 -22q-42 -58 -102 -97q-14 -9 -28.5 -2t-16.5 23q-2 21 -2 40q0 63 -24 121q-6 14 -13 28z" />
    <glyph glyph-name="uniE67B" unicode="&#xe67b;" 
d="M992 -47l-212 212q70 82 92 186.5t-8 207.5t-107 181q-60 60 -138 92t-163 32t-162.5 -32t-137.5 -92q-81 -82 -110 -191.5t0 -218.5t110 -191q60 -60 137.5 -92t162.5 -32q156 0 275 101l212 -212zM205 188q-68 68 -92 159.5t0 183t92 159.5q51 51 115.5 78t136 27
t136 -27t115.5 -78q68 -68 92 -159.5t0 -183t-92 -159.5q-51 -50 -115.5 -77t-136.5 -27q-147 0 -251 104z" />
    <glyph glyph-name="uniE67C" unicode="&#xe67c;" 
d="M1024 300q0 -139 -68.5 -257t-186.5 -186.5t-257 -68.5t-257 68.5t-186.5 186.5t-68.5 257t68.5 257t186.5 186.5t257 68.5t257 -68.5t186.5 -186.5t68.5 -257zM512 800q-102 0 -194.5 -39.5t-159.5 -106.5t-106.5 -159.5t-39.5 -194.5t39.5 -194.5t106.5 -159.5
t159.5 -106.5t194.5 -39.5t194.5 39.5t159.5 106.5t106.5 159.5t39.5 194.5t-39.5 194.5t-106.5 159.5t-159.5 106.5t-194.5 39.5z" />
    <glyph glyph-name="uniE67D" unicode="&#xe67d;" 
d="M512 -92q-97 0 -185 37.5t-152 101.5t-101.5 152t-37.5 185t37.5 185t101.5 152t152 101.5t185 37.5t185 -37.5t152 -101.5t101.5 -152t37.5 -185t-37.5 -185t-101.5 -152t-152 -101.5t-185 -37.5zM512 828q-90 0 -172.5 -35t-142 -94.5t-94.5 -142t-35 -172.5t35 -172.5
t94.5 -142t142 -94.5t172.5 -35t172.5 35t142 94.5t94.5 142t35 172.5t-35 172.5t-94.5 142t-142 94.5t-172.5 35z" />
    <glyph glyph-name="uniE67E" unicode="&#xe67e;" 
d="M512 768q-158 0 -271 -113t-113 -271t113 -271t271 -113t271 113t113 271t-113 271t-271 113zM512 64q-134 0 -227 93t-93 227t93 227t227 93t227 -93t93 -227t-93 -227t-227 -93zM678 538l-230 -237l-102 109q-10 9 -23 9t-22.5 -9.5t-9.5 -22.5t10 -22l128 -128
q6 -7 25.5 -7t25.5 7l256 256q10 9 10 22t-10 23q-12 8 -29 7t-29 -7z" />
    <glyph glyph-name="uniE67F" unicode="&#xe67f;" 
d="M512 894q-104 0 -198.5 -40.5t-163 -109t-109 -163t-40.5 -198.5t40.5 -198.5t109 -163t163 -109t198.5 -40.5t198.5 40.5t163 109t109 163t40.5 198.5t-40.5 198.5t-109 163t-163 109t-198.5 40.5zM512 -68q-92 0 -175.5 35.5t-143.5 96t-96 144t-36 175.5t36 175.5
t96 143.5t143.5 96t175.5 36t175.5 -36t143.5 -96t96 -143.5t36 -175.5t-36 -175.5t-96 -144t-143.5 -96t-175.5 -35.5zM512 638q-18 0 -30.5 -12.5t-12.5 -29.5v-277q0 -18 12.5 -30.5t30.5 -12.5t30.5 12.5t12.5 30.5v277q-1 17 -13 29.5t-30 12.5zM512 213
q-18 0 -30.5 -12.5t-12.5 -30.5t12.5 -30.5t30.5 -12.5t30.5 12.5t12 30.5t-12.5 30.5t-30 12.5zM512 213z" />
    <glyph glyph-name="uniE680" unicode="&#xe680;" 
d="M995 363q-11 0 -19 7l-454 397q-4 4 -10 4t-10 -4l-454 -397q-9 -8 -21 -7.5t-20 9.5t-7 21t10 20l454 398q20 17 48 17t48 -17l454 -398q9 -8 10 -20t-7 -21q-9 -9 -22 -9zM841 -60h-196q-27 0 -47 19.5t-20 47.5v163q0 4 -2.5 7t-6.5 3h-117q-4 0 -7 -3t-3 -7v-163
q0 -28 -19.5 -47.5t-47.5 -19.5h-195q-27 0 -47 19.5t-20 47.5v296q0 22 11 46.5t28 39.5l310 278q20 17 48.5 17t47.5 -17l312 -278q16 -15 27 -39.5t11 -46.5v-296q0 -28 -19.5 -47.5t-47.5 -19.5zM452 237h117q27 0 47 -19.5t20 -47.5v-163q0 -4 2.5 -7t6.5 -3h196
q4 0 6.5 3t2.5 7v296q0 10 -6 23t-13 20l-311 278q-4 3 -10 3t-9 -3l-311 -278q-7 -7 -13 -20t-6 -23v-296q0 -4 3 -7t6 -3h195q4 0 6.5 3t2.5 7v163q0 28 20 47.5t48 19.5z" />
    <glyph glyph-name="uniE681" unicode="&#xe681;" 
d="M512 144q62 0 139 29t137.5 67.5t104.5 76t51 57.5q-3 21 -43 62t-99.5 83t-139.5 73.5t-150 31.5q-69 0 -147.5 -26t-140.5 -64t-103 -82.5t-41 -79.5q2 -18 43 -55.5t101 -76t140 -67.5t148 -29zM512 96q-71 0 -158.5 31t-157 74t-117 91t-47.5 80q0 67 78 138
t191 116.5t211 45.5q77 0 166 -34.5t156.5 -82t112.5 -99t45 -84.5q0 -27 -48.5 -74t-118.5 -91.5t-157.5 -77.5t-155.5 -33v0v0zM512 96zM512 264q50 0 85 35t35 85t-35 85t-85 35t-85 -35t-35 -85t35 -85t85 -35zM512 216q-70 0 -119 49t-49 119t49 119t119 49t119 -49
t49 -119t-49 -119t-119 -49v0v0zM512 216z" />
    <glyph glyph-name="uniE682" unicode="&#xe682;" 
d="M512 144q62 0 139 29t137.5 67.5t104.5 76t51 57.5q-3 21 -43 62t-99.5 83t-139.5 73.5t-150 31.5q-69 0 -147.5 -26t-140.5 -64t-103 -82.5t-41 -79.5q2 -18 43 -55.5t101 -76t140 -67.5t148 -29zM512 96q-71 0 -158.5 31t-157 74t-117 91t-47.5 80q0 67 78 138
t191 116.5t211 45.5q77 0 166 -34.5t156.5 -82t112.5 -99t45 -84.5q0 -27 -48.5 -74t-118.5 -91.5t-157.5 -77.5t-155.5 -33v0v0zM512 96zM512 264zM512 216q-70 0 -119 49t-49 119t49 119t119 49t119 -49t49 -119t-49 -119t-119 -49v0v0zM512 216z" />
  </font>
</defs>
</svg>
